<svg xmlns="http://www.w3.org/2000/svg" viewBox="0 0 841.89 265.22"><path d="M5.21 265.22V259h1.58v6.2h2.52V259h1.58v6.2h7.68v-6.88h1.58v6.88h2.52v-6.88h1.58v6.88H27v-6.88h1.58v6.88h2.52v-6.88h1.58v6.88h6.72v-6.29h1.4v6.29h2.23v-6.29h1.4v6.29h2.23v-6.29h1.4v6.29h2.23v-6.29h1.4v6.29H54v-6.29h1.4v6.29h229.21v-1.58H286v1.58h2.22v-1.58h1.39v1.58H292v-1.58h1.39v1.58h12.09v-3.53h1.11v3.53h6.22v-3.53h1.52v3.53h2.29v-3.53h1.52v3.53h2.42v-3.53h1.52v3.53h2.53v-3.53h1.52v3.53h2.42v-3.53h1.52v3.53h5.25v-3.53h1.1v3.53h16.48v-1.06h1.58v1.06H357v-1.06h1.58v1.06h2.62v-1.06h1.58v1.06h2.52v-1.06h1.58v1.06h2.52v-1.06h1.6v1.06h2.52v-1.06h1.58v1.06h2.52v-1.06h1.58v1.06h2.18v-1.06H383v1.06h2.52v-1.06h1.58v1.06h7.6v-.92h1.58v.92h11.64V259h1.39v6.26h2.18V259h1.39v6.26h2.22V259h1.4v6.26h2.22V259h1.39v6.26h2.22V259h1.39v6.26h2.44V259h1.39v6.26h2.22V259h1.39v6.26h2.22V259h1.4v6.26H437V259h1.39v6.26h6.2V262h1.58v3.26h3.31V262h1.58v3.26h80.54v-6.36h.65v6.32H535v-6.32h.65v6.32h2.68v-6.32h.65v6.32h2.68v-6.32h.65v6.32H545v-6.32h.65v6.32h2.68v-6.32h.65v6.32h2.68v-6.32h.65v6.32h2.68v-6.32h.65v6.32h2.69v-6.32h.65v6.32h2.68v-6.32h.65v6.32h2.68v-6.32h.65v6.32h2.68v-6.32h.65v6.32h2.68v-6.32h.65v6.32h2.68v-6.32h.65v6.32h266.26v-37.1h-29.38V264h-3.41v-57.29h-51.36v-28.78h-22.29v31.6h-2.82v-42h-19.4v42h-2.66v-90.82h-5.33v-14.09l-7.71-3.19v-27h-2.19v27.12l-8 3.19v13.86h-5.1v70.84h-4.44v-67h-16.5v45.69h-11.5v38.64h-3.91v-49h-4.8v-3h-3.75v-16.18h-1.57v16.12h-11.36v-16.12h-1.56v16.12h-3.77v3.12h-4.91v69.63h-3.09v-51.75h-13.69v5.45h-6.85V104h-16.2v-4.29h-3.23V83h-1.57v16.71H540V83h-1.57v16.71h-3.76V104h-17.74v79.11h-5.71v24h-9.68v26.78h-3.44v-98.51H465v30.25h-11v68.64h-11V140h-3.65V78.08h-5.91V76h-3.23V59.21h-1.57V76h-11.35V59.21h-1.57V76H412v2.12h-5.74v62h-3.46v84.26h-5.5v-89.81h-7.05V70.25l-5.14-2V55.74l-6.18-2.53V41.48l-7.23-3.26V0h-2.36v38.31l-7.65 3.26v11.64l-6.82 2.53v12.47l-5.71 2v63.83h-6.53v99.84h-3.21v-83.33h-6.26v-25.29h-4.87v-8h-5.5V96h-2.09v21.33h-5.52v8h-5.65v25.29h-6.94v97.1h-3.65v-93.79H279v25h-5.8V88.21h-11.87v-5.75h-3.23V65.7h-1.57v16.76h-11.36V65.7h-1.56v16.76h-3.76v5.75h-12.32v91.33h-5.8v8.82h-2.64v-19.82h-7.67V127h-34.71v41.75h-7.77v70.95h-3.49v-74.99H148.7v18.88h-2.08v-27.25h-7.5v-10.82h-10V124h-2.4v21.65h-10.66v10.69h-7.46v26.12h-20v51.46h-3.25v-61.71H64.09v61.71h-2.52V139.8h-5.45v-15.94h-7.3V94.35h-2V124h-8.18v15.52h-5.73V211H12.16v21.36H0v32.9zm830.44-31.54h1.58V237h-1.58zm0 6.48h1.58v3.36h-1.58zm0 6.52h1.58V250h-1.58zm0 6.48h1.58v3.36h-1.58zm0 6.69h1.58v5h-1.58zm-4.58-26.17h1.58V237h-1.58zm0 6.48h1.58v3.36h-1.58zm0 6.52h1.58V250h-1.58zm0 6.48h1.58v3.36h-1.58zm0 6.69h1.58v5h-1.58zm-4.58-26.17h1.58V237h-1.58zm0 6.48h1.58v3.36h-1.58zm0 6.52h1.58V250h-1.58zm0 6.48h1.58v3.36h-1.58zm0 6.69h1.58v5h-1.58zm-4.59-26.17h1.58V237h-1.58zm0 6.48h1.58v3.36h-1.58zm0 6.52h1.58V250h-1.58zm0 6.48h1.58v3.36h-1.58zm0 6.69h1.58v5h-1.58zm-4.58-26.17h1.58V237h-1.58zm0 6.48h1.58v3.36h-1.58zm0 6.52h1.58V250h-1.58zm0 6.48h1.58v3.36h-1.58zm0 6.69h1.58v5h-1.58zm-22.6-43.73h4.17v3.34h-4.17zm0 6.81h4.17v3.34h-4.17zm0 6.82h4.17v3.33h-4.17zm0 6.81h4.17v3.34h-4.17zm0 6.81h4.17v3.34h-4.17zm0 6.81h4.17v3.34h-4.17zm0 6.86h4.17v7h-4.17zM788 216.12h4.17v3.34H788zm0 6.81h4.17v3.34H788zm0 6.82h4.17v3.33H788zm0 6.81h4.17v3.34H788zm0 6.81h4.17v3.34H788zm0 6.81h4.17v3.34H788zm0 6.86h4.17v7H788zm-6.76-40.92h4.17v3.34h-4.21zm0 6.81h4.17v3.34h-4.21zm0 6.82h4.17v3.33h-4.21zm0 6.81h4.17v3.34h-4.21zm0 6.81h4.17v3.34h-4.21zm0 6.81h4.17v3.34h-4.21zm0 6.86h4.17v7h-4.21zm-6.76-40.92h4.17v3.34h-4.17zm0 6.81h4.17v3.34h-4.17zm0 6.82h4.17v3.33h-4.17zm0 6.81h4.17v3.34h-4.17zm0 6.81h4.17v3.34h-4.17zm0 6.81h4.17v3.34h-4.17zm0 6.86h4.17v7h-4.17zm-6.76-40.92h4.17v3.34h-4.17zm0 6.81h4.17v3.34h-4.17zm0 6.82h4.17v3.33h-4.17zm0 6.81h4.17v3.34h-4.17zm0 6.81h4.17v3.34h-4.17zm0 6.81h4.17v3.34h-4.17zm0 6.86h4.17v7h-4.17zm-6.76-40.92h4.17v3.34h-4.17zm0 6.81h4.17v3.34h-4.17zm0 6.82h4.17v3.33h-4.17zm0 6.81h4.17v3.34h-4.17zm0 6.81h4.17v3.34h-4.17zm0 6.81h4.17v3.34h-4.17zm0 6.86h4.17v7h-4.17zm-11.6-70.49h.64v4.95h-.65zm0 7.89h.64v4.95h-.65zm0 8.12h.64v4.95h-.65zm0 8.13h.64v4.95h-.65zm0 8.12h.64v4.95h-.65zm0 8.13h.64v4.95h-.65zm0 8.12h.64V240h-.65zm0 8.13h.64v4.95h-.65zm0 8.12h.64v4.95h-.65zm0 8.13h.64v4.95h-.65zM746 186.55h.65v4.95H746zm0 7.89h.65v4.95H746zm0 8.12h.65v4.95H746zm0 8.13h.65v4.95H746zm0 8.12h.65v4.95H746zm0 8.13h.65v4.95H746zm0 8.12h.65V240H746zm0 8.13h.65v4.95H746zm0 8.12h.65v4.95H746zm0 8.13h.65v4.95H746zm-3.33-72.89h.65v4.95h-.65zm0 7.89h.65v4.95h-.65zm0 8.12h.65v4.95h-.65zm0 8.13h.65v4.95h-.65zm0 8.12h.65v4.95h-.65zm0 8.13h.65v4.95h-.65zm0 8.12h.65V240h-.65zm0 8.13h.65v4.95h-.65zm0 8.12h.65v4.95h-.65zm0 8.13h.65v4.95h-.65zm-10.43-30.12h1.31v3.44h-1.31zm0 5.37h1.31v3.45h-1.31zm0 5.37h1.31v3.45h-1.31zm0 5.37h1.31v3.45h-1.31zm0 5.37h1.31v3.45h-1.31zm0 5.37h1.31v3.45h-1.31zm0 5.37h1.31V265h-1.31zm-8.44-87.28h1.58v2.12h-1.58zm0 4.73h1.58v2.11h-1.58zm0 17.57h1.58v3.36h-1.58zm0 6.48h1.58v3.36h-1.58zm0 10.86h1.58v3.35h-1.58zm0 6.48h1.58v3.35h-1.58zm0 13.3h1.58V237h-1.58zm0 6.48h1.58v3.36h-1.58zm0 6.52h1.58V250h-1.58zm0 6.48h1.58v3.36h-1.58zm0 6.69h1.58v5h-1.58zm-4.1-85.59h1.58v2.12h-1.58zm0 4.73h1.58v2.11h-1.58zm0 17.57h1.58v3.36h-1.58zm0 6.48h1.58v3.36h-1.58zm0 10.86h1.58v3.35h-1.58zm0 6.48h1.58v3.35h-1.58zm0 13.3h1.58V237h-1.58zm0 6.48h1.58v3.36h-1.58zm0 6.52h1.58V250h-1.58zm0 6.48h1.58v3.36h-1.58zm0 6.69h1.58v5h-1.58zm-7.7-30.53h1.31v3.44H712zm0 5.37h1.31v3.45H712zm0 5.37h1.31v3.45H712zm0 5.37h1.31v3.45H712zm0 5.37h1.31v3.45H712zm0 5.37h1.31v3.45H712zm0 5.37h1.31V265H712zm-8-139.87h1.58v4.16H704zm0 6.48h1.58v4.15H704zm0 6.47h1.58v4.16H704zm0 6.48h1.58v4.16H704zm0 6.48h1.58v4.16H704zm0 6.48h1.58v4.16H704zm0 6.48h1.58v4.16H704zm0 6.48h1.58v4.15H704zm0 6.48h1.58v4.15H704zm0 6.47h1.58v4.16H704zm0 6.41h1.58v4.16H704zm0 6.48h1.58V197H704zm0 6.48h1.58v4.16H704zm0 6.47h1.58V210H704zm0 6.48h1.58v4.16H704zm0 6.48h1.58v4.16H704zm0 6.48h1.58v4.16H704zm0 6.48h1.58v4.16H704zm0 6.48h1.58v4.16H704zm0 6.47h1.58v4.16H704zm0 6.48h1.58v4.16H704zm0 6.48h1.58v7.07H704zm-4.1-148.31h1.58v2.92h-1.58zm0 6h1.58v2.92h-1.58zm0 6.34h1.58v4.16h-1.58zm0 6.48h1.58v4.15h-1.58zm0 6.47h1.58v4.16h-1.58zm0 6.48h1.58v4.16h-1.58zm0 6.48h1.58v4.16h-1.58zm0 6.48h1.58v4.16h-1.58zm0 6.48h1.58v4.16h-1.58zm0 6.48h1.58v4.15h-1.58zm0 6.48h1.58v4.15h-1.58zm0 6.47h1.58v4.16h-1.58zm0 6.41h1.58v4.16h-1.58zm0 6.48h1.58V197h-1.58zm0 6.48h1.58v4.16h-1.58zm0 6.47h1.58V210h-1.58zm0 6.48h1.58v4.16h-1.58zm0 6.48h1.58v4.16h-1.58zm0 6.48h1.58v4.16h-1.58zm0 6.48h1.58v4.16h-1.58zm0 6.48h1.58v4.16h-1.58zm0 6.47h1.58v4.16h-1.58zm0 6.48h1.58v4.16h-1.58zm0 6.48h1.58v7.07h-1.58zm-4.1-148.31h1.58v2.92h-1.58zm0 6h1.58v2.92h-1.58zm0 6.34h1.58v4.16h-1.58zm0 6.48h1.58v4.15h-1.58zm0 6.47h1.58v4.16h-1.58zm0 6.48h1.58v4.16h-1.58zm0 6.48h1.58v4.16h-1.58zm0 6.48h1.58v4.16h-1.58zm0 6.48h1.58v4.16h-1.58zm0 6.48h1.58v4.15h-1.58zm0 6.48h1.58v4.15h-1.58zm0 6.47h1.58v4.16h-1.58zm0 6.41h1.58v4.16h-1.58zm0 6.48h1.58V197h-1.58zm0 6.48h1.58v4.16h-1.58zm0 6.47h1.58V210h-1.58zm0 6.48h1.58v4.16h-1.58zm0 6.48h1.58v4.16h-1.58zm0 6.48h1.58v4.16h-1.58zm0 6.48h1.58v4.16h-1.58zm0 6.48h1.58v4.16h-1.58zm0 6.47h1.58v4.16h-1.58zm0 6.48h1.58v4.16h-1.58zm0 6.48h1.58v7.07h-1.58zm-4.1-148.31h1.58v2.92h-1.58zm0 6h1.58v2.92h-1.58zm0 6.34h1.58v4.16h-1.58zm0 6.48h1.58v4.15h-1.58zm0 6.47h1.58v4.16h-1.58zm0 6.48h1.58v4.16h-1.58zm0 6.48h1.58v4.16h-1.58zm0 6.48h1.58v4.16h-1.58zm0 6.48h1.58v4.16h-1.58zm0 6.48h1.58v4.15h-1.58zm0 6.48h1.58v4.15h-1.58zm0 6.47h1.58v4.16h-1.58zm0 6.41h1.58v4.16h-1.58zm0 6.48h1.58V197h-1.58zm0 6.48h1.58v4.16h-1.58zm0 6.47h1.58V210h-1.58zm0 6.48h1.58v4.16h-1.58zm0 6.48h1.58v4.16h-1.58zm0 6.48h1.58v4.16h-1.58zm0 6.48h1.58v4.16h-1.58zm0 6.48h1.58v4.16h-1.58zm0 6.47h1.58v4.16h-1.58zm0 6.48h1.58v4.16h-1.58zm0 6.48h1.58v7.07h-1.58zm-4.1-136h1.58v4.16h-1.58zm0 6.48h1.58v4.15h-1.58zm0 6.47h1.58v4.16h-1.58zm0 6.48h1.58v4.16h-1.58zm0 6.48h1.58v4.16h-1.58zm0 6.48h1.58v4.16h-1.58zm0 6.48h1.58v4.16h-1.58zm0 6.48h1.58v4.15h-1.58zm0 6.48h1.58v4.15h-1.58zm0 6.47h1.58v4.16h-1.58zm0 6.41h1.58v4.16h-1.58zm0 6.48h1.58V197h-1.58zm0 6.48h1.58v4.16h-1.58zm0 6.47h1.58V210h-1.58zm0 6.48h1.58v4.16h-1.58zm0 6.48h1.58v4.16h-1.58zm0 6.48h1.58v4.16h-1.58zm0 6.48h1.58v4.16h-1.58zm0 6.48h1.58v4.16h-1.58zm0 6.47h1.58v4.16h-1.58zm0 6.48h1.58v4.16h-1.58zm0 6.48h1.58v7.07h-1.58zm-10.17-59.41h.57v5h-.65zm0 9h.57v5h-.65zm0 19.46h.57v4.95h-.65zm0 8.13h.57v5h-.65zm0 8.12h.57v4.95h-.65zm0 8.13h.57V256h-.65zm0 8.91h.57v4.95h-.65zm-3.52-61.75h.65v5h-.65zm0 9h.65v5h-.65zm0 19.46h.65v4.95h-.65zm0 8.13h.65v5h-.65zm0 8.12h.65v4.95h-.65zm0 8.13h.65V256h-.65zm0 8.91h.65v4.95h-.65zm-3.15-130.45h.65v4.95h-.65zm0 8.12h.65v4.95h-.65zm0 8.13h.65v4.95h-.65zm0 8.12h.65v4.95h-.65zm0 8.13h.65v5h-.65zm-3.33-32.5h.57v4.95h-.65zm0 8.12h.57v4.95h-.65zm0 8.13h.57v4.95h-.65zm0 8.12h.57v4.95h-.65zm0 8.13h.57v5h-.65zM666 177.94h.65v4.95H666zm0 8.13h.65v5H666zm0 8.12h.65v4.95H666zm0 8.13h.65v5H666zm0 8.12h.65v4.95H666zm0 8.13h.65v5H666zm0 8.12h.65v4.95H666zm0 8.13h.65v5H666zm0 8.12h.65v4.95H666zm0 8.13h.65V256H666zm0 8.91h.65v4.95H666zm-3.33-82h.65v4.95h-.65zm0 8.13h.65v5h-.65zm0 8.12h.65v4.95h-.65zm0 8.13h.65v5h-.65zm0 8.12h.65v4.95h-.65zm0 8.13h.65v5h-.65zm0 8.12h.65v4.95h-.65zm0 8.13h.65v5h-.65zm0 8.12h.65v4.95h-.65zm0 8.13h.65V256h-.65zm0 8.91h.65v4.95h-.65zm-3.33-82h.66v4.95h-.65zm0 8.13h.66v5h-.65zm0 8.12h.66v4.95h-.65zm0 8.13h.66v5h-.65zm0 8.12h.66v4.95h-.65zm0 8.13h.66v5h-.65zm0 8.12h.66v4.95h-.65zm0 8.13h.66v5h-.65zm0 8.12h.66v4.95h-.65zm0 8.13h.66V256h-.65zm0 8.91h.66v4.95h-.65zM650 219.84h1.31v3.44H650zm0 5.37h1.31v3.44H650zm0 5.37h1.31V234H650zm0 5.37h1.31v3.45H650zm0 5.37h1.31v3.45H650zm0 5.37h1.31v3.45H650zm0 5.37h1.31v3.45H650zm-3.67-32.22h1.31v3.44h-1.31zm0 5.37h1.31v3.44h-1.31zm0 5.37h1.31V234h-1.31zm0 5.37h1.31v3.45h-1.31zm0 5.37h1.31v3.45h-1.31zm0 5.37h1.31v3.45h-1.31zm0 5.37h1.31v3.45h-1.31zM637 166.13h1.31v3.45H637zm0 5.37h1.31v3.5H637zm0 5.37h1.31v3.45H637zm0 5.37h1.31v3.45H637zm0 5.37h1.31v3.45H637zm0 5.37h1.31v3.45H637zm0 5.37h1.31v3.45H637zm0 5.37h1.31v3.45H637zm0 5.37h1.31v3.45H637zm0 5.38h1.31v3.44H637zm0 5.37h1.31v3.44H637zm0 5.37h1.31v3.45H637zm0 5.37h1.31V234H637zm0 5.37h1.31v3.45H637zm0 5.37h1.31v3.45H637zm0 5.37h1.31v3.45H637zm0 6.63h1.31V260H637zm-3.4-87.19h1.31v3.45h-1.31zm0 5.37h1.31v3.5h-1.31zm0 5.37h1.31v3.45h-1.31zm0 5.37h1.31v3.45h-1.31zm0 5.37h1.31v3.45h-1.31zm0 5.37h1.31v3.45h-1.31zm0 5.37h1.31v3.45h-1.31zm0 5.37h1.31v3.45h-1.31zm0 5.37h1.31v3.45h-1.31zm0 5.38h1.31v3.44h-1.31zm0 5.37h1.31v3.44h-1.31zm0 5.37h1.31v3.45h-1.31zm0 5.37h1.31V234h-1.31zm0 5.37h1.31v3.45h-1.31zm0 5.37h1.31v3.45h-1.31zm0 5.37h1.31v3.45h-1.31zm0 6.63h1.31V260h-1.31zm-3.4-87.19h1.31v3.45h-1.31zm0 5.37h1.31v3.5h-1.31zm0 5.37h1.31v3.45h-1.31zm0 5.37h1.31v3.45h-1.31zm0 5.37h1.31v3.45h-1.31zm0 5.37h1.31v3.45h-1.31zm0 5.37h1.31v3.45h-1.31zm0 5.37h1.31v3.45h-1.31zm0 5.37h1.31v3.45h-1.31zm0 5.38h1.31v3.44h-1.31zm0 5.37h1.31v3.44h-1.31zm0 5.37h1.31v3.45h-1.31zm0 5.37h1.31V234h-1.31zm0 5.37h1.31v3.45h-1.31zm0 5.37h1.31v3.45h-1.31zm0 5.37h1.31v3.45h-1.31zm0 6.63h1.31V260h-1.31zm-3.4-87.19h1.31v3.45h-1.31zm0 5.37h1.31v3.5h-1.31zm0 5.37h1.31v3.45h-1.31zm0 5.37h1.31v3.45h-1.31zm0 5.37h1.31v3.45h-1.31zm0 5.37h1.31v3.45h-1.31zm0 5.37h1.31v3.45h-1.31zm0 5.37h1.31v3.45h-1.31zm0 5.37h1.31v3.45h-1.31zm0 5.38h1.31v3.44h-1.31zm0 5.37h1.31v3.44h-1.31zm0 5.37h1.31v3.45h-1.31zm0 5.37h1.31V234h-1.31zm0 5.37h1.31v3.45h-1.31zm0 5.37h1.31v3.45h-1.31zm0 5.37h1.31v3.45h-1.31zm0 6.63h1.31V260h-1.31zm-3.4-87.19h1.31v3.45h-1.31zm0 5.37h1.31v3.5h-1.31zm0 5.37h1.31v3.45h-1.31zm0 5.37h1.31v3.45h-1.31zm0 5.37h1.31v3.45h-1.31zm0 5.37h1.31v3.45h-1.31zm0 5.37h1.31v3.45h-1.31zm0 5.37h1.31v3.45h-1.31zm0 5.37h1.31v3.45h-1.31zm0 5.38h1.31v3.44h-1.31zm0 5.37h1.31v3.44h-1.31zm0 5.37h1.31v3.45h-1.31zm0 5.37h1.31V234h-1.31zm0 5.37h1.31v3.45h-1.31zm0 5.37h1.31v3.45h-1.31zm0 5.37h1.31v3.45h-1.31zm0 6.63h1.31V260h-1.31zm-25.32-63.59h.65v5h-.65zm0 8.69h.65v5h-.65zm0 9h.65v4.95h-.65zm0 8.12h.65v4.95h-.65zm0 8.13h.65v4.95h-.65zm0 8h.65v4.95h-.65zm0 12.41h.65V249h-.65zm0 8.13h.65v5h-.65zm-3.33-62.49h.65v5h-.65zm0 8.69h.65v5h-.65zm0 9h.65v4.95h-.65zm0 8.12h.65v4.95h-.65zm0 8.13h.65v4.95h-.65zm0 8h.65v4.95h-.65zm0 12.41h.65V249h-.65zm0 8.13h.65v5h-.65zm-3.33-62.49h.65v5h-.65zm0 8.69h.65v5h-.65zm0 9h.65v4.95h-.65zm0 8.12h.65v4.95h-.65zm0 8.13h.65v4.95h-.65zm0 8h.65v4.95h-.65zm0 12.41h.65V249h-.65zm0 8.13h.65v5h-.65zm-19.16 2.3h-.65v-5h.65zm0-8.77h-.65v-4.92h.65zm0-8.13h-.65v-5h.65zm0-15.54h-.65v-5h.65zm0-8.12h-.65v-5h.65zm0-8.13h-.65v-5h.65zm0-8.12h-.65v-5h.65zm0-8.13h-.65v-5h.65zm0-8.12h-.65v-5h.65zm0-15.5h-.65v-5h.65zm0-8.9h-.65v-4.95h.65zm0-8.13h-.65v-5h.65zm0-8.12h-.65v-4.95h.65zm0-8.13h-.65v-5h.65zm3.33 121.84h-.65v-5h.65zm0-8.77h-.65v-4.92h.65zm0-8.13h-.65v-5h.65zm0-15.54h-.65v-5h.65zm0-8.12h-.65v-5h.65zm0-8.13h-.65v-5h.65zm0-8.12h-.65v-5h.65zm0-8.13h-.65v-5h.65zm0-8.12h-.65v-5h.65zm0-15.5h-.65v-5h.65zm0-8.9h-.65v-4.95h.65zm0-8.13h-.65v-5h.65zm0-8.12h-.65v-4.95h.65zm0-8.13h-.65v-5h.65zM571 114.59h4.41v1.73H571zm0 3.88h4.41v1.73H571zm-2.71 9.26h.65v5h-.65zm0 8.13h.65v4.95h-.65zm0 8.12h.65v5h-.65zm0 8.13h.65v4.95h-.65zm0 8.9h.65v5h-.65zm0 15.5h.65v5h-.65zm0 8.12h.65v5h-.65zm0 8.13h.65v5h-.65zm0 8.12h.65v5h-.65zm0 8.13h.65v5h-.65zm0 8.12h.65v5h-.65zm0 15.54h.65v5h-.65zm0 8.13h.65v4.95h-.65zm0 8.77h.65v5h-.65zm-2.68 5h-.65v-5h.65zm0-8.77h-.65v-5h.65zm0-8.13h-.65v-5h.65zm0-15.54h-.65v-5h.65zm0-8.12h-.65v-5h.65zm0-8.13h-.65v-5h.65zm0-8.12h-.65v-5h.65zm0-8.13h-.65v-5h.65zm0-8.12h-.65v-5h.65zm0-15.5h-.65v-5h.65zm0-8.9h-.65v-4.95h.65zm0-8.13h-.65v-5h.65zm0-8.12h-.65v-4.95h.65zm0-8.13h-.65v-5h.65zm-2.21-18.09h4.41v1.73h-4.41zm0 3.88h4.41v1.73h-4.41zm-1.77 9.26h.65v5h-.65zm0 8.13h.65v4.95h-.65zm0 8.12h.65v5h-.65zm0 8.13h.65v4.95h-.65zm0 8.9h.65v5h-.65zm0 15.5h.65v5h-.65zm0 8.12h.65v5h-.65zm0 8.13h.65v5h-.65zm0 8.12h.65v5h-.65zm0 8.13h.65v5h-.65zm0 8.12h.65v5h-.65zm0 15.54h.65v5h-.65zm0 8.13h.65v4.95h-.65zm0 8.77h.65v5h-.65zm-2.68 5h-.65v-5h.65zm0-8.77h-.65v-5.05h.65zm0-8.13h-.65v-5h.65zm0-15.54h-.65v-5h.65zm0-8.12h-.65v-5h.65zm0-8.13h-.65v-5h.65zm0-8.12h-.65v-5h.65zm0-8.13h-.65v-5h.65zm0-8.12h-.65v-5h.65zm0-15.5h-.65v-5h.65zm0-8.9h-.65v-4.95h.65zm0-8.13h-.65v-5h.65zm0-8.12h-.65v-4.95h.65zm0-8.13h-.65v-5h.65zm-3.79-18.09h4.41v1.73h-4.41zm0 3.88h4.41v1.73h-4.41zm-.2 9.26h.65v5h-.65zm0 8.13h.65v4.95h-.65zm0 8.12h.65v5h-.65zm0 8.13h.65v4.95h-.65zm0 8.9h.65v5h-.65zm0 15.5h.65v5h-.65zm0 8.12h.65v5h-.65zm0 8.13h.65v5h-.65zm0 8.12h.65v5h-.65zm0 8.13h.65v5h-.65zm0 8.12h.65v5h-.65zm0 15.54h.65v5h-.65zm0 8.13h.65v4.95h-.65zm0 8.77h.65v5h-.65zm-3.33-121.84h.65v5h-.65zm0 8.13h.65v4.95h-.65zm0 8.12h.65v5h-.65zm0 8.13h.65v4.95h-.65zm0 8.9h.65v5h-.65zm0 15.5h.65v5h-.65zm0 8.12h.65v5h-.65zm0 8.13h.65v5h-.65zm0 8.12h.65v5h-.65zm0 8.13h.65v5h-.65zm0 8.12h.65v5h-.65zm0 15.54h.65v5h-.65zm0 8.13h.65v4.95h-.65zm0 8.77h.65v5h-.65zm-2.68 5h-.65v-5h.65zm0-8.77h-.65v-5.1h.65zm0-8.13h-.65v-5h.65zm0-15.54h-.65v-5h.65zm0-8.12h-.65v-5h.65zm0-8.13h-.65v-5h.65zm0-8.12h-.65v-5h.65zm0-8.13h-.65v-5h.65zm0-8.12h-.65v-5h.65zm0-15.5h-.65v-5h.65zm0-8.9h-.65v-4.95h.65zm0-8.13h-.65v-5h.65zm0-8.12h-.65v-4.95h.65zm0-8.13h-.65v-5h.65zm-2-18.09h4.41v1.73h-4.46zm0 3.88h4.41v1.73h-4.46zm-1.95 9.11h.65v5H545zm0 8.13h.65v4.95H545zm0 8.12h.65v5H545zm0 8.13h.65v4.95H545zm0 8.9h.65v5H545zm0 15.5h.65v5H545zm0 8.12h.65v5H545zm0 8.13h.65v5H545zm0 8.12h.65v5H545zm0 8.13h.65v5H545zm0 8.12h.65v5H545zm0 15.54h.65v5H545zm0 8.13h.65v4.95H545zm0 8.77h.65v5H545zm-2.68 5h-.65v-5h.65zm0-8.77h-.65v-5h.65zm0-8.13h-.65v-5h.65zm0-15.54h-.65v-5h.65zm0-8.12h-.65v-5h.65zm0-8.13h-.65v-5h.65zm0-8.12h-.65v-5h.65zm0-8.13h-.65v-5h.65zm0-8.12h-.65v-5h.65zm0-15.5h-.65v-5h.65zm0-8.9h-.65v-4.95h.65zm0-8.13h-.65v-5h.65zm0-8.12h-.65v-4.95h.65zm0-8.13h-.65v-5h.65zm-3.61-18.09h4.41v1.73h-4.41zm0 3.88h4.41v1.73h-4.41zm-.37 9.26h.65v5h-.65zm0 8.13h.65v4.95h-.65zm0 8.12h.65v5h-.65zm0 8.13h.65v4.95h-.65zm0 8.9h.65v5h-.65zm0 15.5h.65v5h-.65zm0 8.12h.65v5h-.65zm0 8.13h.65v5h-.65zm0 8.12h.65v5h-.65zm0 8.13h.65v5h-.65zm0 8.12h.65v5h-.65zm0 15.54h.65v5h-.65zm0 8.13h.65v4.95h-.65zm0 8.77h.65v5h-.65zm-6 5h-.65v-5h.65zm0-8.77h-.65v-5.05h.65zm0-8.13h-.65v-5h.65zm0-15.54h-.65v-5h.65zm0-8.12h-.65v-5h.65zm0-8.13h-.65v-5h.65zm0-8.12h-.65v-5h.65zm0-8.13h-.65v-5h.65zm0-8.12h-.65v-5h.65zm0-15.5h-.65v-5h.65zm0-8.9h-.65v-4.95h.65zm0-8.13h-.65v-5h.65zm0-8.12h-.65v-4.95h.65zm0-8.13h-.65v-5h.65zm3.33 121.84H535v-5h.65zm0-8.77H535v-5.05h.65zm0-8.13H535v-5h.65zm0-15.54H535v-5h.65zm0-8.12H535v-5h.65zm0-8.13H535v-5h.65zm0-8.12H535v-5h.65zm0-8.13H535v-5h.65zm0-8.12H535v-5h.65zm0-15.5H535v-5h.65zm0-8.9H535v-4.95h.65zm0-8.13H535v-5h.65zm0-8.12H535v-4.95h.65zm0-8.13H535v-5h.65zm-4.82-18.09h4.4v1.73h-4.4zm0 3.88h4.4v1.73h-4.4zM510.07 213h1.31v3.45h-1.31zm0 5.37h1.31v3.45h-1.31zm0 5.37h1.31v3.45h-1.31zm0 5.37h1.31v3.45h-1.31zm0 5.37h1.31v3.45h-1.31zm0 5.38h1.31v3.44h-1.31zm0 5.37h1.31v3.44h-1.31zm0 5.37h1.31v3.4h-1.31zm0 5.37h1.31v3.44h-1.31zm0 5.37h1.31v3.44h-1.31zm-3.4-48.34H508v3.45h-1.31zm0 5.37H508v3.45h-1.31zm0 5.37H508v3.45h-1.31zm0 5.37H508v3.45h-1.31zm0 5.37H508v3.45h-1.31zm0 5.38H508v3.44h-1.31zm0 5.37H508v3.44h-1.31zm0 5.37H508v3.4h-1.31zm0 5.37H508v3.44h-1.31zm0 5.37H508v3.44h-1.31zm-14.79-116.48h.65v4.95h-.65zm0 8.12h.65v5h-.65zm0 8.13h.65v4.95h-.65zm0 8.12h.65v5h-.65zm0 8.13h.65v4.95h-.65zm0 8.95h.65v4.95h-.65zm0 8.13h.65v4.95h-.65zm0 8.12h.65v4.95h-.65zm0 8.13h.65v4.95h-.65zm0 8.12h.65v4.95h-.65zm0 8.13h.65v4.95h-.65zm0 8.12h.65V240h-.65zm0 8.13h.65v4.95h-.65zm0 8.12h.65v4.95h-.65zm0 8.13h.65v4.95h-.65zm-3.33-114.58h.65v4.95h-.65zm0 8.12h.65v5h-.65zm0 8.13h.65v4.95h-.65zm0 8.12h.65v5h-.65zm0 8.13h.65v4.95h-.65zm0 8.95h.65v4.95h-.65zm0 8.13h.65v4.95h-.65zm0 8.12h.65v4.95h-.65zm0 8.13h.65v4.95h-.65zm0 8.12h.65v4.95h-.65zm0 8.13h.65v4.95h-.65zm0 8.12h.65V240h-.65zm0 8.13h.65v4.95h-.65zm0 8.12h.65v4.95h-.65zm0 8.13h.65v4.95h-.65zm-3.33-114.58h.65v4.95h-.65zm0 8.12h.65v5h-.65zm0 8.13h.65v4.95h-.65zm0 8.12h.65v5h-.65zm0 8.13h.65v4.95h-.65zm0 8.95h.65v4.95h-.65zm0 8.13h.65v4.95h-.65zm0 8.12h.65v4.95h-.65zm0 8.13h.65v4.95h-.65zm0 8.12h.65v4.95h-.65zm0 8.13h.65v4.95h-.65zm0 8.12h.65V240h-.65zm0 8.13h.65v4.95h-.65zm0 8.12h.65v4.95h-.65zm0 8.13h.65v4.95h-.65zm-7-114.58h.65v4.95h-.65zm0 8.12h.65v5h-.65zm0 8.13h.65v4.95h-.65zm0 8.12h.65v5h-.65zm0 8.13h.65v4.95h-.65zm0 8.95h.65v4.95h-.65zm0 8.13h.65v4.95h-.65zm0 8.12h.65v4.95h-.65zm0 8.13h.65v4.95h-.65zm0 8.12h.65v4.95h-.65zm0 8.13h.65v4.95h-.65zm0 8.12h.65V240h-.65zm0 8.13h.65v4.95h-.65zm0 8.12h.65v4.95h-.65zm0 8.13h.65v4.95h-.65zm-3.33-114.58h.65v4.95h-.65zm0 8.12h.65v5h-.65zm0 8.13h.65v4.95h-.65zm0 8.12h.65v5h-.65zm0 8.13h.65v4.95h-.65zm0 8.95h.65v4.95h-.65zm0 8.13h.65v4.95h-.65zm0 8.12h.65v4.95h-.65zm0 8.13h.65v4.95h-.65zm0 8.12h.65v4.95h-.65zm0 8.13h.65v4.95h-.65zm0 8.12h.65V240h-.65zm0 8.13h.65v4.95h-.65zm0 8.12h.65v4.95h-.65zm0 8.13h.65v4.95h-.65zm-3.29-114.58h.65v4.95h-.65zm0 8.12h.65v5h-.65zm0 8.13h.65v4.95h-.65zm0 8.12h.65v5h-.65zm0 8.13h.65v4.95h-.65zm0 8.95h.65v4.95h-.65zm0 8.13h.65v4.95h-.65zm0 8.12h.65v4.95h-.65zm0 8.13h.65v4.95h-.65zm0 8.12h.65v4.95h-.65zm0 8.13h.65v4.95h-.65zm0 8.12h.65V240h-.65zm0 8.13h.65v4.95h-.65zm0 8.12h.65v4.95h-.65zm0 8.13h.65v4.95h-.65zm-7.36-82.71h1.31v3.45h-1.31zm0 5.4h1.31v3.45h-1.31zm0 5.37h1.31v3.5h-1.31zm0 5.37h1.31v3.45h-1.31zm0 16.11h1.31v3.45h-1.31zm0 5.49h1.31v3.44h-1.31zm0 5.37h1.31v3.44h-1.31zm0 5.37h1.31v3.45h-1.31zm0 16.11h1.31v3.45h-1.31zm0 11.82h1.31v3.45h-1.31zm0 5.37h1.31V262h-1.31zm-4.6-81.78H461v3.45h-1.31zm0 5.4H461v3.45h-1.31zm0 5.37H461v3.5h-1.31zm0 5.37H461v3.45h-1.31zm0 16.11H461v3.45h-1.31zm0 5.49H461v3.44h-1.31zm0 5.37H461v3.44h-1.31zm0 5.37H461v3.45h-1.31zm0 16.11H461v3.45h-1.31zm0 11.82H461v3.45h-1.31zm0 5.37H461V262h-1.31zm-10.13-16h1.58v4.16h-1.58zm0 6.48h1.58v4.15h-1.58zm0 6.47h1.58v4.16h-1.58zm-4.89-12.95h1.58v4.16h-1.58zm0 6.48h1.58v4.15h-1.58zm0 6.47h1.58v4.16h-1.58zm-6.2 1.16H437v-4.16h1.39zm0-6.48H437V246h1.39zm0-6.48H437v-4.16h1.39zm0-6.48H437V233h1.39zm0-6.48H437v-4.16h1.39zm0-6.47H437v-4.16h1.39zm0-6.48H437v-4.16h1.39zm0-6.48H437v-4.16h1.39zm0-6.48H437v-4.16h1.39zm0-6.05H437v-4.14h1.39zm0-6.48H437v-4.16h1.39zm0-6.48H437v-4.15h1.39zm0-6.47H437v-4.16h1.39zm0-6.48H437v-4.16h1.39zm0-6.48H437v-4.16h1.39zm0-6.48H437v-4.16h1.39zm0-6.48H437v-4.16h1.39zM437 142.77h1.39v4.16H437zM433.35 84h1.4v4.16h-1.4zm0 6.47h1.4v4.16h-1.4zm0 6.48h1.4v4.16h-1.4zm0 6.48h1.4v4.16h-1.4zm0 6.48h1.4v4.16h-1.4zm0 6.48h1.4v4.16h-1.4zm0 6.48h1.4V127h-1.4zm0 7h1.4V134h-1.4zm0 6.48h1.4v4.15h-1.4zm0 6.47h1.4v4.16h-1.4zm0 6.48h1.4v4.16h-1.4zm0 6.48h1.4v4.16h-1.4zm0 6.48h1.4v4.16h-1.4zm0 6.48h1.4v4.16h-1.4zm0 6.48h1.4v4.16h-1.4zm0 6.48h1.4v4.15h-1.4zm0 6.47h1.4v4.16h-1.4zm0 6.48h1.4v4.16h-1.4zm0 6.05h1.4v4.16h-1.4zm0 6.48h1.4v4.16h-1.4zm0 6.48h1.4v4.16h-1.4zm0 6.48h1.4v4.16h-1.4zm0 6.47h1.4v4.16h-1.4zm0 6.48h1.4v4.16h-1.4zm0 6.48h1.4v4.16h-1.4zm0 6.48h1.4v4.16h-1.4zm0 6.48h1.4v4.16h-1.4zM429.74 84h1.39v4.16h-1.39zm0 6.47h1.39v4.16h-1.39zm0 6.48h1.39v4.16h-1.39zm0 6.48h1.39v4.16h-1.39zm0 6.48h1.39v4.16h-1.39zm0 6.48h1.39v4.16h-1.39zm0 6.48h1.39V127h-1.39zm0 7h1.39V134h-1.39zm0 6.48h1.39v4.15h-1.39zm0 6.47h1.39v4.16h-1.39zm0 6.48h1.39v4.16h-1.39zm0 6.48h1.39v4.16h-1.39zm0 6.48h1.39v4.16h-1.39zm0 6.48h1.39v4.16h-1.39zm0 6.48h1.39v4.16h-1.39zm0 6.48h1.39v4.15h-1.39zm0 6.47h1.39v4.16h-1.39zm0 6.48h1.39v4.16h-1.39zm0 6.05h1.39v4.16h-1.39zm0 6.48h1.39v4.16h-1.39zm0 6.48h1.39v4.16h-1.39zm0 6.48h1.39v4.16h-1.39zm0 6.47h1.39v4.16h-1.39zm0 6.48h1.39v4.16h-1.39zm0 6.48h1.39v4.16h-1.39zm0 6.48h1.39v4.16h-1.39zm0 6.48h1.39v4.16h-1.39zM426.13 84h1.39v4.16h-1.39zm0 6.47h1.39v4.16h-1.39zm0 6.48h1.39v4.16h-1.39zm0 6.48h1.39v4.16h-1.39zm0 6.48h1.39v4.16h-1.39zm0 6.48h1.39v4.16h-1.39zm0 6.48h1.39V127h-1.39zm0 7h1.39V134h-1.39zm0 6.48h1.39v4.15h-1.39zm0 6.47h1.39v4.16h-1.39zm0 6.48h1.39v4.16h-1.39zm0 6.48h1.39v4.16h-1.39zm0 6.48h1.39v4.16h-1.39zm0 6.48h1.39v4.16h-1.39zm0 6.48h1.39v4.16h-1.39zm0 6.48h1.39v4.15h-1.39zm0 6.47h1.39v4.16h-1.39zm0 6.48h1.39v4.16h-1.39zm0 6.05h1.39v4.16h-1.39zm0 6.48h1.39v4.16h-1.39zm0 6.48h1.39v4.16h-1.39zm0 6.48h1.39v4.16h-1.39zm0 6.47h1.39v4.16h-1.39zm0 6.48h1.39v4.16h-1.39zm0 6.48h1.39v4.16h-1.39zm0 6.48h1.39v4.16h-1.39zm0 6.48h1.39v4.16h-1.39zM422.3 84h1.39v4.16h-1.39zm0 6.47h1.39v4.16h-1.39zm0 6.48h1.39v4.16h-1.39zm0 6.48h1.39v4.16h-1.39zm0 6.48h1.39v4.16h-1.39zm0 6.48h1.39v4.16h-1.39zm0 6.48h1.39V127h-1.39zm0 7h1.39V134h-1.39zm0 6.48h1.39v4.15h-1.39zm0 6.47h1.39v4.16h-1.39zm0 6.48h1.39v4.16h-1.39zm0 6.48h1.39v4.16h-1.39zm0 6.48h1.39v4.16h-1.39zm0 6.48h1.39v4.16h-1.39zm0 6.48h1.39v4.16h-1.39zm0 6.48h1.39v4.15h-1.39zm0 6.47h1.39v4.16h-1.39zm0 6.48h1.39v4.16h-1.39zm0 6.05h1.39v4.16h-1.39zm0 6.48h1.39v4.16h-1.39zm0 6.48h1.39v4.16h-1.39zm0 6.48h1.39v4.16h-1.39zm0 6.47h1.39v4.16h-1.39zm0 6.48h1.39v4.16h-1.39zm0 6.48h1.39v4.16h-1.39zm0 6.48h1.39v4.16h-1.39zm0 6.48h1.39v4.16h-1.39zM418.69 84h1.39v4.16h-1.39zm0 6.47h1.39v4.16h-1.39zm0 6.48h1.39v4.16h-1.39zm0 6.48h1.39v4.16h-1.39zm0 6.48h1.39v4.16h-1.39zm0 6.48h1.39v4.16h-1.39zm0 6.48h1.39V127h-1.39zm0 7h1.39V134h-1.39zm0 6.48h1.39v4.15h-1.39zm0 6.47h1.39v4.16h-1.39zm0 6.48h1.39v4.16h-1.39zm0 6.48h1.39v4.16h-1.39zm0 6.48h1.39v4.16h-1.39zm0 6.48h1.39v4.16h-1.39zm0 6.48h1.39v4.16h-1.39zm0 6.48h1.39v4.15h-1.39zm0 6.47h1.39v4.16h-1.39zm0 6.48h1.39v4.16h-1.39zm0 6.05h1.39v4.16h-1.39zm0 6.48h1.39v4.16h-1.39zm0 6.48h1.39v4.16h-1.39zm0 6.48h1.39v4.16h-1.39zm0 6.47h1.39v4.16h-1.39zm0 6.48h1.39v4.16h-1.39zm0 6.48h1.39v4.16h-1.39zm0 6.48h1.39v4.16h-1.39zm0 6.48h1.39v4.16h-1.39zM415.07 84h1.4v4.16h-1.4zm0 6.47h1.4v4.16h-1.4zm0 6.48h1.4v4.16h-1.4zm0 6.48h1.4v4.16h-1.4zm0 6.48h1.4v4.16h-1.4zm0 6.48h1.4v4.16h-1.4zm0 6.48h1.4V127h-1.4zm0 7h1.4V134h-1.4zm0 6.48h1.4v4.15h-1.4zm0 6.47h1.4v4.16h-1.4zm0 6.48h1.4v4.16h-1.4zm0 6.48h1.4v4.16h-1.4zm0 6.48h1.4v4.16h-1.4zm0 6.48h1.4v4.16h-1.4zm0 6.48h1.4v4.16h-1.4zm0 6.48h1.4v4.15h-1.4zm0 6.47h1.4v4.16h-1.4zm0 6.48h1.4v4.16h-1.4zm0 6.05h1.4v4.16h-1.4zm0 6.48h1.4v4.16h-1.4zm0 6.48h1.4v4.16h-1.4zm0 6.48h1.4v4.16h-1.4zm0 6.47h1.4v4.16h-1.4zm0 6.48h1.4v4.16h-1.4zm0 6.48h1.4v4.16h-1.4zm0 6.48h1.4v4.16h-1.4zm0 6.48h1.4v4.16h-1.4zM411.46 84h1.39v4.16h-1.39zm0 6.47h1.39v4.16h-1.39zm0 6.48h1.39v4.16h-1.39zm0 6.48h1.39v4.16h-1.39zm0 6.48h1.39v4.16h-1.39zm0 6.48h1.39v4.16h-1.39zm0 6.48h1.39V127h-1.39zm0 7h1.39V134h-1.39zm0 6.48h1.39v4.15h-1.39zm0 6.47h1.39v4.16h-1.39zm0 6.48h1.39v4.16h-1.39zm0 6.48h1.39v4.16h-1.39zm0 6.48h1.39v4.16h-1.39zm0 6.48h1.39v4.16h-1.39zm0 6.48h1.39v4.16h-1.39zm0 6.48h1.39v4.15h-1.39zm0 6.47h1.39v4.16h-1.39zm0 6.48h1.39v4.16h-1.39zm0 6.05h1.39v4.16h-1.39zm0 6.48h1.39v4.16h-1.39zm0 6.48h1.39v4.16h-1.39zm0 6.48h1.39v4.16h-1.39zm0 6.47h1.39v4.16h-1.39zm0 6.48h1.39v4.16h-1.39zm0 6.48h1.39v4.16h-1.39zm0 6.48h1.39v4.16h-1.39zm0 6.48h1.39v4.16h-1.39zm-3.39-109.71h1.39v4.16h-1.39zm-.18 6.48h1.39v4.16h-1.39zm0 6.48h1.39v4.16h-1.39zm0 6.48h1.39v4.16h-1.39zm0 6.48h1.39v4.16h-1.39zm0 6.48h1.39v4.16h-1.39zm0 6.48h1.39v4.15h-1.39zm0 6.47h1.39v4.16h-1.39zm0 6.48h1.39v4.16h-1.39zm0 6.05h1.39v4.16h-1.39zm0 6.48h1.39v4.16h-1.39zm0 6.48h1.39v4.16h-1.39zm0 6.48h1.39v4.16h-1.39zm0 6.47h1.39v4.16h-1.39zm0 6.48h1.39v4.16h-1.39zm0 6.48h1.39v4.16h-1.39zm0 6.48h1.39v4.16h-1.39zm0 6.48h1.39v4.16h-1.39zm-13.22-18.62h1.58V238h-1.58zm0 6.48h1.58v4.16h-1.58zm0 6.48h1.58V251h-1.58zm0 6.47h1.58v4.16h-1.58zm-7.6 8.56h-1.58v-4.16h1.58zm0-6.48h-1.58v-4.16h1.58zm0-6.48h-1.58v-4.16h1.58zm0-6.48h-1.58v-4.16h1.58zm0-6.48h-1.58v-4.16h1.58zm0-6.48h-1.58v-4.16h1.58zm0-6h-1.58v-4.16h1.58zm0-6.48h-1.58v-4.16h1.58zm0-6.48h-1.58v-4.16h1.58zm0-6.48h-1.58v-4.16h1.58zm0-6.48h-1.58v-4.16h1.58zm0-6.48h-1.58v-4.16h1.58zm0-6.48h-1.58v-4.15h1.58zm-1.58-42.8h1.58v4.16h-1.58zm0 6.48h1.58v4.16h-1.58zm0 6.25h1.58v4.16h-1.58zm0 6.48h1.58v4.16h-1.58zm0 6.48h1.58v4.16h-1.58zm0 6.48h1.58v4.16h-1.58zm-2.52 88h-1.58v-4.16H383zm0-6.48h-1.58v-4.16H383zm0-6.48h-1.58v-4.16H383zm0-6.48h-1.58v-4.16H383zm0-6.48h-1.58v-4.16H383zm0-6.48h-1.58v-4.16H383zm0-6h-1.58v-4.16H383zm0-6.48h-1.58v-4.16H383zm0-6.48h-1.58v-4.16H383zm0-6.48h-1.58v-4.16H383zm0-6.48h-1.58v-4.16H383zm0-6.48h-1.58v-4.16H383zm0-6.48h-1.58v-4.15H383zm0-6.47h-1.58v-4.34H383zm0-6.48h-1.58v-4.16H383zm-1.75-99.56h1.58v2.86h-1.58zm0 5.18h1.58v4.16h-1.58zm0 6.47h1.58V88h-1.58zm0 6.48h1.58v4.16h-1.58zm0 6.48h1.58V101h-1.58zm0 6.48h1.58v4.16h-1.58zm0 6.48h1.58v4.16h-1.58zm0 6.48h1.58v4.16h-1.58zm0 6h1.58v4.16h-1.58zm0 6.48h1.58v4.16h-1.58zm0 6.48h1.58v4.16h-1.58zm0 6.48h1.58v4.16h-1.58zm0 6.48h1.58v4.16h-1.58zm0 6.25h1.58v4.16h-1.58zm0 6.48h1.58v4.16h-1.58zm-3.59-103h1.58v2.85h-1.58zm0 5.34h1.58v2.85h-1.58zm0 8.92h1.58v2.86h-1.58zm0 5.18h1.58v4.16h-1.58zm0 6.47h1.58V88h-1.58zm0 6.48h1.58v4.16h-1.58zm0 6.48h1.58V101h-1.58zm0 6.48h1.58v4.16h-1.58zm0 6.48h1.58v4.16h-1.58zm0 6.48h1.58v4.16h-1.58zm0 6h1.58v4.16h-1.58zm0 6.48h1.58v4.16h-1.58zm0 6.48h1.58v4.16h-1.58zm0 6.48h1.58v4.16h-1.58zm0 6.48h1.58v4.16h-1.58zm0 6.25h1.58v4.16h-1.58zm0 6.48h1.58v4.16h-1.58zm0 6.48h1.58v4.16h-1.58zm0 6.48h1.58v4.16h-1.58zm0 6.48h1.58v4.15h-1.58zm0 6.47h1.58V191h-1.58zm0 6.48h1.58v4.16h-1.58zm0 6.48h1.58V204h-1.58zm0 6.48h1.58v4.16h-1.58zm0 6.48h1.58v4.16h-1.58zm0 6.48h1.58v4.16h-1.58zm0 6h1.58v4.16h-1.58zm0 6.48h1.58v4.16h-1.58zm0 6.48h1.58v4.16h-1.58zm0 6.48h1.58v4.16h-1.58zm0 6.48h1.58v4.16h-1.58zm0 6.48h1.58v4.16h-1.58zm-4.1-211.23h1.58V49h-1.58zm0 11.48h1.58v2.85h-1.58zm0 5.34h1.58v2.85h-1.58zm0 8.92h1.58v2.86h-1.58zm0 5.18h1.58v4.16h-1.58zm0 6.47h1.58V88h-1.58zm0 6.48h1.58v4.16h-1.58zm0 6.48h1.58V101h-1.58zm0 6.48h1.58v4.16h-1.58zm0 6.48h1.58v4.16h-1.58zm0 6.48h1.58v4.16h-1.58zm0 6h1.58v4.16h-1.58zm0 6.48h1.58v4.16h-1.58zm0 6.48h1.58v4.16h-1.58zm0 6.48h1.58v4.16h-1.58zm0 6.48h1.58v4.16h-1.58zm0 6.25h1.58v4.16h-1.58zm0 6.48h1.58v4.16h-1.58zm0 6.48h1.58v4.16h-1.58zm0 6.48h1.58v4.16h-1.58zm0 6.48h1.58v4.15h-1.58zm0 6.47h1.58V191h-1.58zm0 6.48h1.58v4.16h-1.58zm0 6.48h1.58V204h-1.58zm0 6.48h1.58v4.16h-1.58zm0 6.48h1.58v4.16h-1.58zm0 6.48h1.58v4.16h-1.58zm0 6h1.58v4.16h-1.58zm0 6.48h1.58v4.16h-1.58zm0 6.48h1.58v4.16h-1.58zm0 6.48h1.58v4.16h-1.58zm0 6.48h1.58v4.16h-1.58zm0 6.48h1.58v4.16h-1.58zm-4.1-211.23H371V49h-1.58zm0 11.48H371v2.85h-1.58zm0 5.34H371v2.85h-1.58zm0 8.92H371v2.86h-1.58zm0 5.18H371v4.16h-1.58zm0 6.47H371V88h-1.58zm0 6.48H371v4.16h-1.58zm0 6.48H371V101h-1.58zm0 6.48H371v4.16h-1.58zm0 6.48H371v4.16h-1.58zm0 6.48H371v4.16h-1.58zm0 6H371v4.16h-1.58zm0 6.48H371v4.16h-1.58zm0 6.48H371v4.16h-1.58zm0 6.48H371v4.16h-1.58zm0 6.48H371v4.16h-1.58zm0 6.25H371v4.16h-1.58zm0 6.48H371v4.16h-1.58zm0 6.48H371v4.16h-1.58zm0 6.48H371v4.16h-1.58zm0 6.48H371v4.15h-1.58zm0 6.47H371V191h-1.58zm0 6.48H371v4.16h-1.58zm0 6.48H371V204h-1.58zm0 6.48H371v4.16h-1.58zm0 6.48H371v4.16h-1.58zm0 6.48H371v4.16h-1.58zm0 6H371v4.16h-1.58zm0 6.48H371v4.16h-1.58zm0 6.48H371v4.16h-1.58zm0 6.48H371v4.16h-1.58zm0 6.48H371v4.16h-1.58zm0 6.48H371v4.16h-1.58zm-4.1-211.23h1.58V49h-1.58zm0 11.48h1.58v2.85h-1.58zm0 5.34h1.58v2.85h-1.58zm0 8.92h1.58v2.86h-1.58zm0 5.18h1.58v4.16h-1.58zm0 6.47h1.58V88h-1.58zm0 6.48h1.58v4.16h-1.58zm0 6.48h1.58V101h-1.58zm0 6.48h1.58v4.16h-1.58zm0 6.48h1.58v4.16h-1.58zm0 6.48h1.58v4.16h-1.58zm0 6h1.58v4.16h-1.58zm0 6.48h1.58v4.16h-1.58zm0 6.48h1.58v4.16h-1.58zm0 6.48h1.58v4.16h-1.58zm0 6.48h1.58v4.16h-1.58zm0 6.25h1.58v4.16h-1.58zm0 6.48h1.58v4.16h-1.58zm0 6.48h1.58v4.16h-1.58zm0 6.48h1.58v4.16h-1.58zm0 6.48h1.58v4.15h-1.58zm0 6.47h1.58V191h-1.58zm0 6.48h1.58v4.16h-1.58zm0 6.48h1.58V204h-1.58zm0 6.48h1.58v4.16h-1.58zm0 6.48h1.58v4.16h-1.58zm0 6.48h1.58v4.16h-1.58zm0 6h1.58v4.16h-1.58zm0 6.48h1.58v4.16h-1.58zm0 6.48h1.58v4.16h-1.58zm0 6.48h1.58v4.16h-1.58zm0 6.48h1.58v4.16h-1.58zm0 6.48h1.58v4.16h-1.58zm-4.1-199.75h1.58v2.85h-1.58zm0 5.34h1.58v2.85h-1.58zm0 8.92h1.58v2.86h-1.58zm0 5.18h1.58v4.16h-1.58zm0 6.47h1.58V88h-1.58zm0 6.48h1.58v4.16h-1.58zm0 6.48h1.58V101h-1.58zm0 6.48h1.58v4.16h-1.58zm0 6.48h1.58v4.16h-1.58zm0 6.48h1.58v4.16h-1.58zm0 6h1.58v4.16h-1.58zm0 6.48h1.58v4.16h-1.58zm0 6.48h1.58v4.16h-1.58zm0 6.48h1.58v4.16h-1.58zm0 6.48h1.58v4.16h-1.58zm0 6.25h1.58v4.16h-1.58zm0 6.48h1.58v4.16h-1.58zm0 6.48h1.58v4.16h-1.58zm0 6.48h1.58v4.16h-1.58zm0 6.48h1.58v4.15h-1.58zm0 6.47h1.58V191h-1.58zm0 6.48h1.58v4.16h-1.58zm0 6.48h1.58V204h-1.58zm0 6.48h1.58v4.16h-1.58zm0 6.48h1.58v4.16h-1.58zm0 6.48h1.58v4.16h-1.58zm0 6h1.58v4.16h-1.58zm0 6.48h1.58v4.16h-1.58zm0 6.48h1.58v4.16h-1.58zm0 6.48h1.58v4.16h-1.58zm0 6.48h1.58v4.16h-1.58zm0 6.48h1.58v4.16h-1.58zM357 72.2h1.58v2.86H357zm0 5.18h1.58v4.16H357zm0 6.47h1.58V88H357zm0 6.48h1.58v4.16H357zm0 6.48h1.58V101H357zm0 6.48h1.58v4.16H357zm0 6.48h1.58v4.16H357zm0 6.48h1.58v4.16H357zm0 6h1.58v4.16H357zm0 6.48h1.58v4.16H357zm0 6.48h1.58v4.16H357zm0 6.48h1.58v4.16H357zm0 6.48h1.58v4.16H357zm0 6.25h1.58v4.16H357zm0 6.48h1.58v4.16H357zm0 6.48h1.58v4.16H357zm0 6.48h1.58v4.16H357zm0 6.48h1.58v4.15H357zm0 6.47h1.58V191H357zm0 6.48h1.58v4.16H357zm0 6.48h1.58V204H357zm0 6.48h1.58v4.16H357zm0 6.48h1.58v4.16H357zm0 6.48h1.58v4.16H357zm0 6h1.58v4.16H357zm0 6.48h1.58v4.16H357zm0 6.48h1.58v4.16H357zm0 6.48h1.58v4.16H357zm0 6.48h1.58v4.16H357zm0 6.48h1.58v4.16H357zm-2.52 4.16h-1.58v-4.16h1.58zm0-6.48h-1.58v-4.16h1.58zm0-6.48h-1.58v-4.16h1.58zm0-6.48h-1.58v-4.16h1.58zm0-6.48h-1.58v-4.16h1.58zm0-6.48h-1.58v-4.16h1.58zm0-6h-1.58v-4.16h1.58zm0-6.48h-1.58v-4.16h1.58zm0-6.48h-1.58v-4.16h1.58zm0-6.48h-1.58v-4.16h1.58zm0-6.48h-1.58v-4.16h1.58zm0-6.48h-1.58v-4.16h1.58zm0-6.48h-1.58v-4.15h1.58zm-1.61-42.8h1.58v4.16h-1.55zm0 6.48h1.58v4.16h-1.55zm0 6.25h1.58v4.16h-1.55zm0 6.48h1.58v4.16h-1.55zm0 6.48h1.58v4.16h-1.55zm0 6.48h1.58v4.16h-1.55zm-11 69.89h.65v5h-.65zm0 8.13h.65v5h-.65zm0 8.12h.65v5h-.65zm-6.51-106.88h1.1v3.36h-1.1zm0 6h1.1v3.36h-1.1zm0 6.48h1.1v3.4h-1.1zm0 6.48h1.1v3.36h-1.1zm0 6h1.1v3.36h-1.1zm0 6.48h1.1V188h-1.1zm0 6.48h1.1v3.35h-1.1zm0 6.47h1.1V201h-1.1zm0 6.48h1.1v3.36h-1.1zm0 6.21h1.1v3.36h-1.1zm0 6.48h1.1v3.35h-1.1zm0 6.48h1.1v3.35h-1.1zm0 6h1.1v3.36h-1.1zm0 6.48h1.1V239h-1.1zm0 6.48h1.1v3.36h-1.1zm0 6.48h1.1v3.36h-1.1zm0 6.48h1.1v3.35h-1.1zm-6.77-123.16h1.52v1.59h-1.52zm0 4.49h1.52v3.35h-1.52zm0 6.48h1.52v3.35h-1.52zm0 10.14h1.52v3.36h-1.52zm0 6h1.52v3.36h-1.52zm0 6.48h1.52V169h-1.52zm0 6.48h1.52v3.36h-1.52zm0 6h1.52v3.36h-1.52zm0 6.48h1.52V188h-1.52zm0 6.48h1.52v3.35h-1.52zm0 6.47h1.52V201h-1.52zm0 6.48h1.52v3.36h-1.52zm0 6.21h1.52v3.36h-1.52zm0 6.48h1.52v3.35h-1.52zm0 6.48h1.52v3.35h-1.52zm0 6h1.52v3.36h-1.52zm0 6.48h1.52v3.36h-1.52zm0 6.48h1.52v3.36h-1.52zm0 6.48h1.52v3.36h-1.52zm0 6.48h1.52v3.35h-1.52zm-3.94-123.16h1.52v1.59h-1.52zm0 4.49h1.52v3.35h-1.52zm0 6.48h1.52v3.35h-1.52zm0 10.14h1.52v3.36h-1.52zm0 6h1.52v3.36h-1.52zm0 6.48h1.52V169h-1.52zm0 6.48h1.52v3.36h-1.52zm0 6h1.52v3.36h-1.52zm0 6.48h1.52V188h-1.52zm0 6.48h1.52v3.35h-1.52zm0 6.47h1.52V201h-1.52zm0 6.48h1.52v3.36h-1.52zm0 6.21h1.52v3.36h-1.52zm0 6.48h1.52v3.35h-1.52zm0 6.48h1.52v3.35h-1.52zm0 6h1.52v3.36h-1.52zm0 6.48h1.52v3.36h-1.52zm0 6.48h1.52v3.36h-1.52zm0 6.48h1.52v3.36h-1.52zm0 6.48h1.52v3.35h-1.52zm-4.05-123.16h1.52v1.59h-1.52zm0 4.49h1.52v3.35h-1.52zm0 6.48h1.52v3.35h-1.52zm0 10.14h1.52v3.36h-1.52zm0 6h1.52v3.36h-1.52zm0 6.48h1.52V169h-1.52zm0 6.48h1.52v3.36h-1.52zm0 6h1.52v3.36h-1.52zm0 6.48h1.52V188h-1.52zm0 6.48h1.52v3.35h-1.52zm0 6.47h1.52V201h-1.52zm0 6.48h1.52v3.36h-1.52zm0 6.21h1.52v3.36h-1.52zm0 6.48h1.52v3.35h-1.52zm0 6.48h1.52v3.35h-1.52zm0 6h1.52v3.36h-1.52zm0 6.48h1.52v3.36h-1.52zm0 6.48h1.52v3.36h-1.52zm0 6.48h1.52v3.36h-1.52zm0 6.48h1.52v3.35h-1.52zm-3.94-123.16h1.52v1.59h-1.52zm0 4.49h1.52v3.35h-1.52zm0 6.48h1.52v3.35h-1.52zm0 10.14h1.52v3.36h-1.52zm0 6h1.52v3.36h-1.52zm0 6.48h1.52V169h-1.52zm0 6.48h1.52v3.36h-1.52zm0 6h1.52v3.36h-1.52zm0 6.48h1.52v3.8h-1.52zm0 6.48h1.52v3.35h-1.52zm0 6.47h1.52V201h-1.52zm0 6.48h1.52v3.36h-1.52zm0 6.21h1.52v3.36h-1.52zm0 6.48h1.52v3.35h-1.52zm0 6.48h1.52v3.35h-1.52zm0 6h1.52v3.36h-1.52zm0 6.48h1.52v3.36h-1.52zm0 6.48h1.52v3.36h-1.52zm0 6.48h1.52v3.36h-1.52zm0 6.48h1.52v3.35h-1.52zm-3.81-123.16h1.52v1.59h-1.52zm0 4.49h1.52v3.35h-1.52zm0 6.48h1.52v3.35h-1.52zm0 10.14h1.52v3.36h-1.52zm0 6h1.52v3.36h-1.52zm0 6.48h1.52V169h-1.52zm0 6.48h1.52v3.36h-1.52zm0 6h1.52v3.36h-1.52zm0 6.48h1.52V188h-1.52zm0 6.48h1.52v3.35h-1.52zm0 6.47h1.52V201h-1.52zm0 6.48h1.52v3.36h-1.52zm0 6.21h1.52v3.36h-1.52zm0 6.48h1.52v3.35h-1.52zm0 6.48h1.52v3.35h-1.52zm0 6h1.52v3.36h-1.52zm0 6.48h1.52v3.36h-1.52zm0 6.48h1.52v3.36h-1.52zm0 6.48h1.52v3.36h-1.52zm0 6.48h1.52v3.35h-1.52zm-7.33-102.05h1.11v3.36h-1.11zm0 6h1.11v3.36h-1.11zm0 6.48h1.11V169h-1.11zm0 6.48h1.11v3.36h-1.11zm0 6h1.11v3.36h-1.11zm0 6.48h1.11V188h-1.11zm0 6.48h1.11v3.35h-1.11zm0 6.47h1.11V201h-1.11zm0 6.48h1.11v3.36h-1.11zm0 6.21h1.11v3.36h-1.11zm0 6.48h1.11v3.35h-1.11zm0 6.48h1.11v3.35h-1.11zm0 6h1.11v3.36h-1.11zm0 6.48h1.11v3.36h-1.11zm0 6.48h1.11v3.36h-1.11zm0 6.48h1.11v3.36h-1.11zm0 6.48h1.11v3.35h-1.11zM292 160.42h1.39v4.16H292zm0 6.48h1.39v4.16H292zm0 6.48h1.39v4.15H292zm0 6.47h1.39V184H292zm0 6.48h1.39v4.16H292zm0 6.48h1.39V197H292zm0 6.48h1.39v4.16H292zm0 6.48h1.39v4.16H292zm0 6h1.39V216H292zm0 6.47h1.39v4.16H292zm0 6.48h1.39v4.16H292zm0 6.48h1.39v4.16H292zm0 6.48h1.39v4.16H292zm0 6.48h1.39v4.16H292zm0 6.48h1.39v4.16H292zm0 6.47h1.39v4.17H292zm-3.8-96.74h1.39v4.16h-1.39zm0 6.48h1.39v4.16h-1.39zm0 6.48h1.39v4.15h-1.39zm0 6.47h1.39v4.2h-1.39zm0 6.48h1.39v4.16h-1.39zm0 6.48h1.39V197h-1.39zm0 6.48h1.39v4.16h-1.39zm0 6.48h1.39v4.16h-1.39zm0 6h1.39V216h-1.39zm0 6.47h1.39v4.16h-1.39zm0 6.48h1.39v4.16h-1.39zm0 6.48h1.39v4.16h-1.39zm0 6.48h1.39v4.16h-1.39zm0 6.48h1.39v4.16h-1.39zm0 6.48h1.39v4.16h-1.39zm0 6.47h1.39v4.17h-1.39zm-3.62-96.74H286v4.16h-1.4zm0 6.48H286v4.16h-1.4zm0 6.48H286v4.15h-1.4zm0 6.47H286V184h-1.4zm0 6.48H286v4.16h-1.4zm0 6.48H286V197h-1.4zm0 6.48H286v4.16h-1.4zm0 6.48H286v4.16h-1.4zm0 6H286V216h-1.4zm0 6.47H286v4.16h-1.4zm0 6.48H286v4.16h-1.4zm0 6.48H286v4.16h-1.4zm0 6.48H286v4.16h-1.4zm0 6.48H286v4.16h-1.4zm0 6.48H286v4.16h-1.4zm0 6.47H286v4.17h-1.4zM273.55 191h1.39v4.16h-1.39zm0 6.48h1.39v4.15h-1.39zm0 6.47h1.39v4.16h-1.39zm0 6h1.39v4.16h-1.39zm0 6.48h1.39v4.16h-1.39zm0 6.48h1.39v4.16h-1.39zm0 6.48h1.39v4.16h-1.39zm0 6.48h1.39v4.16h-1.39zm0 6.47h1.39v4.16h-1.39zm-.34 16.26h1.39v4.16h-1.39zM264.8 96.2h3.89v4.88h-3.89zm0 8.94h3.89v2.07h-3.89zm0 5.25h3.89v2.07h-3.89zm0 5.48h3.89v2.06h-3.89zm0 5.47h3.89v2.06h-3.89zm0 5.47h3.89v2.07h-3.89zm0 5.47h3.89v2.07h-3.89zm0 5h3.89v2.07h-3.89zm0 5.47h3.89v2.07h-3.89zm0 5.48h3.89v2.06h-3.89zm0 5.47h3.89v2.06h-3.89zm0 5.47h3.89v2.06h-3.89zm0 5.47h3.89v2.07h-3.89zm0 5.47h3.89v2.07h-3.89zm0 5.48h3.89v2.06h-3.89zm0 5.47h3.89v2.06h-3.89zm0 5.47h3.89v2.06h-3.89zm0 5.51h3.89v2.07h-3.89zm0 5.48h3.89v2.06h-3.89zm0 5.47h3.89v2.06h-3.89zm0 5.47h3.89v2.06h-3.89zm0 5.47h3.89V216h-3.89zm0 5.47h3.89v2.07h-3.89zm0 5.47h3.89V227h-3.89zm0 5.48h3.89v2.06h-3.89zm0 5.47h3.89v2.06h-3.89zm0 5.47h3.89v2.07h-3.89zm0 11.37h3.89v2.06h-3.89zm0 5.47h3.89v6.31h-3.89zM259.37 96.2h3.89v4.88h-3.89zm0 8.94h3.89v2.07h-3.89zm0 5.25h3.89v2.07h-3.89zm0 5.48h3.89v2.06h-3.89zm0 5.47h3.89v2.06h-3.89zm0 5.47h3.89v2.07h-3.89zm0 5.47h3.89v2.07h-3.89zm0 5h3.89v2.07h-3.89zm0 5.47h3.89v2.07h-3.89zm0 5.48h3.89v2.06h-3.89zm0 5.47h3.89v2.06h-3.89zm0 5.47h3.89v2.06h-3.89zm0 5.47h3.89v2.07h-3.89zm0 5.47h3.89v2.07h-3.89zm0 5.48h3.89v2.06h-3.89zm0 5.47h3.89v2.06h-3.89zm0 5.47h3.89v2.06h-3.89zm0 5.51h3.89v2.07h-3.89zm0 5.48h3.89v2.06h-3.89zm0 5.47h3.89v2.06h-3.89zm0 5.47h3.89v2.06h-3.89zm0 5.47h3.89V216h-3.89zm0 5.47h3.89v2.07h-3.89zm0 5.47h3.89V227h-3.89zm0 5.48h3.89v2.06h-3.89zm0 5.47h3.89v2.06h-3.89zm0 5.47h3.89v2.07h-3.89zm0 11.37h3.89v2.06h-3.89zm0 5.47h3.89v6.31h-3.89zM253.94 96.2h3.89v4.88h-3.89zm0 8.94h3.89v2.07h-3.89zm0 5.25h3.89v2.07h-3.89zm0 5.48h3.89v2.06h-3.89zm0 5.47h3.89v2.06h-3.89zm0 5.47h3.89v2.07h-3.89zm0 5.47h3.89v2.07h-3.89zm0 5h3.89v2.07h-3.89zm0 5.47h3.89v2.07h-3.89zm0 5.48h3.89v2.06h-3.89zm0 5.47h3.89v2.06h-3.89zm0 5.47h3.89v2.06h-3.89zm0 5.47h3.89v2.07h-3.89zm0 5.47h3.89v2.07h-3.89zm0 5.48h3.89v2.06h-3.89zm0 5.47h3.89v2.06h-3.89zm0 5.47h3.89v2.06h-3.89zm0 5.51h3.89v2.07h-3.89zm0 5.48h3.89v2.06h-3.89zm0 5.47h3.89v2.06h-3.89zm0 5.47h3.89v2.06h-3.89zm0 5.47h3.89V216h-3.89zm0 5.47h3.89v2.07h-3.89zm0 5.47h3.89V227h-3.89zm0 5.48h3.89v2.06h-3.89zm0 5.47h3.89v2.06h-3.89zm0 5.47h3.89v2.07h-3.89zm0 11.37h3.89v2.06h-3.89zm0 5.47h3.89v6.31h-3.89zM248.51 96.2h3.89v4.88h-3.89zm0 8.94h3.89v2.07h-3.89zm0 5.25h3.89v2.07h-3.89zm0 5.48h3.89v2.06h-3.89zm0 5.47h3.89v2.06h-3.89zm0 5.47h3.89v2.07h-3.89zm0 5.47h3.89v2.07h-3.89zm0 5h3.89v2.07h-3.89zm0 5.47h3.89v2.07h-3.89zm0 5.48h3.89v2.06h-3.89zm0 5.47h3.89v2.06h-3.89zm0 5.47h3.89v2.06h-3.89zm0 5.47h3.89v2.07h-3.89zm0 5.47h3.89v2.07h-3.89zm0 5.48h3.89v2.06h-3.89zm0 5.47h3.89v2.06h-3.89zm0 5.47h3.89v2.06h-3.89zm0 5.51h3.89v2.07h-3.89zm0 5.48h3.89v2.06h-3.89zm0 5.47h3.89v2.06h-3.89zm0 5.47h3.89v2.06h-3.89zm0 5.47h3.89V216h-3.89zm0 5.47h3.89v2.07h-3.89zm0 5.47h3.89V227h-3.89zm0 5.48h3.89v2.06h-3.89zm0 5.47h3.89v2.06h-3.89zm0 5.47h3.89v2.07h-3.89zm0 11.37h3.89v2.06h-3.89zm0 5.47h3.89v6.31h-3.89zM243.08 96.2H247v4.88h-3.89zm0 8.94H247v2.07h-3.89zm0 5.25H247v2.07h-3.89zm0 5.48H247v2.06h-3.89zm0 5.47H247v2.06h-3.89zm0 5.47H247v2.07h-3.89zm0 5.47H247v2.07h-3.89zm0 5H247v2.07h-3.89zm0 5.47H247v2.07h-3.89zm0 5.48H247v2.06h-3.89zm0 5.47H247v2.06h-3.89zm0 5.47H247v2.06h-3.89zm0 5.47H247v2.07h-3.89zm0 5.47H247v2.07h-3.89zm0 5.48H247v2.06h-3.89zm0 5.47H247v2.06h-3.89zm0 5.47H247v2.06h-3.89zm0 5.51H247v2.07h-3.89zm0 5.48H247v2.06h-3.89zm0 5.47H247v2.06h-3.89zm0 5.47H247v2.06h-3.89zm0 5.47H247V216h-3.89zm0 5.47H247v2.07h-3.89zm0 5.47H247V227h-3.89zm0 5.48H247v2.06h-3.89zm0 5.47H247v2.06h-3.89zm0 5.47H247v2.07h-3.89zm0 11.37H247v2.06h-3.89zm0 5.47H247v6.31h-3.89zM237.65 96.2h3.89v4.88h-3.89zm0 8.94h3.89v2.07h-3.89zm0 5.25h3.89v2.07h-3.89zm0 5.48h3.89v2.06h-3.89zm0 5.47h3.89v2.06h-3.89zm0 5.47h3.89v2.07h-3.89zm0 5.47h3.89v2.07h-3.89zm0 5h3.89v2.07h-3.89zm0 5.47h3.89v2.07h-3.89zm0 5.48h3.89v2.06h-3.89zm0 5.47h3.89v2.06h-3.89zm0 5.47h3.89v2.06h-3.89zm0 5.47h3.89v2.07h-3.89zm0 5.47h3.89v2.07h-3.89zm0 5.48h3.89v2.06h-3.89zm0 5.47h3.89v2.06h-3.89zm0 5.47h3.89v2.06h-3.89zm0 5.51h3.89v2.07h-3.89zm0 5.48h3.89v2.06h-3.89zm0 5.47h3.89v2.06h-3.89zm0 5.47h3.89v2.06h-3.89zm0 5.47h3.89V216h-3.89zm0 5.47h3.89v2.07h-3.89zm0 5.47h3.89V227h-3.89zm0 5.48h3.89v2.06h-3.89zm0 5.47h3.89v2.06h-3.89zm0 5.47h3.89v2.07h-3.89zm0 11.37h3.89v2.06h-3.89zm0 5.47h3.89v6.31h-3.89zM232.22 96.2h3.89v4.88h-3.89zm0 8.94h3.89v2.07h-3.89zm0 5.25h3.89v2.07h-3.89zm0 5.48h3.89v2.06h-3.89zm0 5.47h3.89v2.06h-3.89zm0 5.47h3.89v2.07h-3.89zm0 5.47h3.89v2.07h-3.89zm0 5h3.89v2.07h-3.89zm0 5.47h3.89v2.07h-3.89zm0 5.48h3.89v2.06h-3.89zm0 5.47h3.89v2.06h-3.89zm0 5.47h3.89v2.06h-3.89zm0 5.47h3.89v2.07h-3.89zm0 5.47h3.89v2.07h-3.89zm0 5.48h3.89v2.06h-3.89zm0 5.47h3.89v2.06h-3.89zm0 5.47h3.89v2.06h-3.89zm0 5.51h3.89v2.07h-3.89zm0 5.48h3.89v2.06h-3.89zm0 5.47h3.89v2.06h-3.89zm0 5.47h3.89v2.06h-3.89zm0 5.47h3.89V216h-3.89zm0 5.47h3.89v2.07h-3.89zm0 5.47h3.89V227h-3.89zm0 5.48h3.89v2.06h-3.89zm0 5.47h3.89v2.06h-3.89zm0 5.47h3.89v2.07h-3.89zm0 11.37h3.89v2.06h-3.89zm0 5.47h3.89v6.31h-3.89zm-9-67.17h1.39v4.16h-1.39zm0 6.48h1.39v4.15h-1.39zm0 6.47h1.39v4.16h-1.39zm0 6h1.39v4.16h-1.39zm0 6.48h1.39v4.16h-1.39zm0 6.48h1.39v4.16h-1.39zm0 6.48h1.39v4.16h-1.39zm0 6.48h1.39v4.16h-1.39zm0 6.47h1.39v4.16h-1.39zm0 16.26h1.39v4.16h-1.39zm-15.63 5.58h-1.58v-6.58h1.58zm0-10.13h-1.58v-2.16h1.58zm0-6.48h-1.58v-2.16h1.58zm0-6.52h-1.58v-2.16h1.58zm0-6.48h-1.58v-2.16h1.58zm0-6.52h-1.58v-2.16h1.58zm0-6.48h-1.58v-2.16h1.58zm0-6.48h-1.58V213h1.58zm0-6.05h-1.58v-2.16h1.58zm0-6.48h-1.58v-2.16h1.58zm0-6.47h-1.58V194h1.58zm0-6.48h-1.58v-2.16h1.58zm0-6.48h-1.58V181h1.58zm2.52-8.64h1.58v2.16h-1.58zm0 6.48h1.58v2.16h-1.58zm0 6.48h1.58v2.16h-1.58zm0 6.48h1.58v2.16h-1.58zm0 6.47h1.58v2.16h-1.58zm0 6.48h1.58V209h-1.58zm0 6.05h1.58v2.16h-1.58zm0 6.48h1.58v2.16h-1.58zm0 6.48h1.58v2.16h-1.58zm0 6.52h1.58v2.16h-1.58zm0 6.48h1.58v2.16h-1.58zm0 6.52h1.58v2.16h-1.58zm0 6.48h1.58v2.16h-1.58zm0 5.71h1.58v6.58h-1.58zm-2.52-80.95h-1.58v-2.16h1.58zm-2.49-42h1.58V136h-1.58zm0 5.88h1.58v1.3h-1.58zm0 5.89h1.58v1.29h-1.58zm0 6.27h1.58V154h-1.58zm0 5.88h1.58v1.29h-1.58zm0 5.88h1.58v1.3h-1.58zm-2.84 10.05h1.58v2.16h-1.54zm0 6.48h1.58v2.16h-1.54zm0 6.48h1.58v2.16h-1.54zm0 6.48h1.58v2.16h-1.54zm0 6.47h1.58v2.16h-1.54zm0 6.48h1.58v2.16h-1.54zm0 6.05h1.58v2.16h-1.54zm0 6.48h1.58v2.16h-1.54zm0 6.48h1.58v2.16h-1.54zm0 6.52h1.58v2.16h-1.54zm0 6.48h1.58v2.16h-1.54zm0 6.52h1.58v2.16h-1.54zm0 6.48h1.58v2.16h-1.54zm0 5.71h1.58v6.58h-1.54zm-1.62-123h1.58V136h-1.58zm0 5.88h1.58v1.3h-1.58zm0 5.89h1.58v1.29h-1.58zm0 6.27h1.58V154h-1.58zm0 5.88h1.58v1.29h-1.58zm0 5.88h1.58v1.3h-1.58zm-2.48 10.05h1.58v2.16h-1.54zm0 6.48h1.58v2.16h-1.54zm0 6.48h1.58v2.16h-1.54zm0 6.48h1.58v2.16h-1.54zm0 6.47h1.58v2.16h-1.54zm0 6.48h1.58v2.16h-1.54zm0 6.05h1.58v2.16h-1.54zm0 6.48h1.58v2.16h-1.54zm0 6.48h1.58v2.16h-1.54zm0 6.52h1.58v2.16h-1.54zm0 6.48h1.58v2.16h-1.54zm0 6.52h1.58v2.16h-1.54zm0 6.48h1.58v2.16h-1.54zm0 5.71h1.58v6.58h-1.54zm-2.1-123h1.58V136h-1.54zm0 5.88h1.58v1.3h-1.54zm0 5.89h1.58v1.29h-1.54zm0 6.27h1.58V154h-1.54zm0 5.88h1.58v1.29h-1.54zm0 5.88h1.58v1.3h-1.54zm-2 10.05h1.58v2.16h-1.58zm0 6.48h1.58v2.16h-1.58zm0 6.48h1.58v2.16h-1.58zm0 6.48h1.58v2.16h-1.58zm0 6.47h1.58v2.16h-1.58zm0 6.48h1.58v2.16h-1.58zm0 6.05h1.58v2.16h-1.58zm0 6.48h1.58v2.16h-1.58zm0 6.48h1.58v2.16h-1.58zm0 6.52h1.58v2.16h-1.58zm0 6.48h1.58v2.16h-1.58zm0 6.52h1.58v2.16h-1.58zm0 6.48h1.58v2.16h-1.58zm0 5.71h1.58v6.58h-1.58zm-2.45-123h1.58V136h-1.58zm0 5.88h1.58v1.3h-1.58zm0 5.89h1.58v1.29h-1.58zm0 6.27h1.58V154h-1.58zm0 5.88h1.58v1.29h-1.58zm0 5.88h1.58v1.3h-1.58zM190 174.52h1.58v2.16H190zm0 6.48h1.58v2.16H190zm0 6.48h1.58v2.16H190zm0 6.48h1.58v2.16H190zm0 6.47h1.58v2.16H190zm0 6.48h1.58v2.16H190zm0 6.05h1.58v2.16H190zm0 6.48h1.58v2.16H190zm0 6.48h1.58v2.16H190zm0 6.52h1.58v2.16H190zm0 6.48h1.58v2.16H190zm0 6.52h1.58v2.16H190zm0 6.48h1.58v2.16H190zm0 5.71h1.58v6.58H190zm-2.54-123H189V136h-1.58zm0 5.88H189v1.3h-1.58zm0 5.89H189v1.29h-1.58zm0 6.27H189V154h-1.58zm0 5.88H189v1.29h-1.58zm0 5.88H189v1.3h-1.58zm-1.56 10.05h1.58v2.16h-1.58zm0 6.48h1.58v2.16h-1.58zm0 6.48h1.58v2.16h-1.58zm0 6.48h1.58v2.16h-1.58zm0 6.47h1.58v2.16h-1.58zm0 6.48h1.58v2.16h-1.58zm0 6.05h1.58v2.16h-1.58zm0 6.48h1.58v2.16h-1.58zm0 6.48h1.58v2.16h-1.58zm0 6.52h1.58v2.16h-1.58zm0 6.48h1.58v2.16h-1.58zm0 6.52h1.58v2.16h-1.58zm0 6.48h1.58v2.16h-1.58zm0 5.71h1.58v6.58h-1.58zm-2.9-123h1.58V136H183zm0 5.88h1.58v1.3H183zm0 5.89h1.58v1.29H183zm0 6.27h1.58V154H183zm0 5.88h1.58v1.29H183zm0 5.88h1.58v1.3H183zm-1.3 10.05h1.58v2.16h-1.58zm0 6.48h1.58v2.16h-1.58zm0 6.48h1.58v2.16h-1.58zm0 6.48h1.58v2.16h-1.58zm0 6.47h1.58v2.16h-1.58zm0 6.48h1.58v2.16h-1.58zm0 6.05h1.58v2.16h-1.58zm0 6.48h1.58v2.16h-1.58zm0 6.48h1.58V228h-1.58zm0 6.52h1.58v2.16h-1.58zm0 6.48h1.58V241h-1.58zm0 6.52h1.58v2.16h-1.58zm0 6.48h1.58V254h-1.58zm0 5.71h1.58v6.58h-1.58zm-4.1-83.11h1.58v2.16h-1.58zm0 6.48h1.58v2.16h-1.58zm0 6.48h1.58v2.16h-1.58zm0 6.48h1.58v2.16h-1.58zm0 6.47h1.58v2.16h-1.58zm0 6.48h1.58v2.16h-1.58zm0 6.05h1.58v2.16h-1.58zm0 6.48h1.58v2.16h-1.58zm0 6.48h1.58V228h-1.58zm0 6.52h1.58v2.16h-1.58zm0 6.48h1.58V241h-1.58zm0 6.52h1.58v2.16h-1.58zm0 6.48h1.58V254h-1.58zm0 5.71h1.58v6.58h-1.58zm-9.7.17h1.39V262h-1.39zm-8.9-86.3h1.39v4.16H159zm0 6.48h1.39v4.16H159zm0 6.48h1.39v4.16H159zm0 6.6h1.39v4.16H159zm0 6.48h1.39v4.15H159zm0 6.47h1.39v4.16H159zm0 6h1.39v4.16H159zm0 6.48h1.39v4.16H159zm0 6.48h1.39v4.16H159zm0 6.48h1.39v4.16H159zm0 6.48h1.39v4.16H159zm0 6.47h1.39v4.16H159zm0 15.43h1.39V262H159zm-4.54-86.38h1.39v4.16h-1.39zm0 6.48h1.39v4.16h-1.39zm0 6.48h1.39v4.16h-1.39zm0 6.6h1.39v4.16h-1.39zm0 6.48h1.39v4.15h-1.39zm0 6.47h1.39v4.16h-1.39zm0 6h1.39v4.16h-1.39zm0 6.48h1.39v4.16h-1.39zm0 6.48h1.39V227h-1.39zm0 6.48h1.39v4.16h-1.39zm0 6.48h1.39v4.16h-1.39zm0 6.47h1.39v4.16h-1.39zm0 15.43h1.39v4.3h-1.39zm-9.08 0h1.4v4.3h-1.4zM135 152h1.58v4.16H135zm0 11.3h1.58v4.16H135zm0 6.47h1.58v4.16H135zm0 6.48h1.58v4.16H135zm0 6.48h1.58v4.16H135zm0 6.48h1.58v4.16H135zm0 6.48h1.58v4.16H135zm0 6.48h1.58v4.16H135zm0 6.48h1.58v4.15H135zm0 6.47h1.58v4.16H135zm0 6.48h1.58v4.16H135zm0 6.48h1.58v4.16H135zm0 11.92h1.58v4.16H135zm0 6.48h1.58v4.16H135zm0 7h1.58v7.77H135zM130.86 152h1.58v4.16h-1.58zm0 11.3h1.58v4.16h-1.58zm0 6.47h1.58v4.16h-1.58zm0 6.48h1.58v4.16h-1.58zm0 6.48h1.58v4.16h-1.58zm0 6.48h1.58v4.16h-1.58zm0 6.48h1.58v4.16h-1.58zm0 6.48h1.58v4.16h-1.58zm0 6.48h1.58v4.15h-1.58zm0 6.47h1.58v4.16h-1.58zm0 6.48h1.58v4.16h-1.58zm0 6.48h1.58v4.16h-1.58zm0 11.88h1.58v4.16h-1.58zm0 6.48h1.58v4.16h-1.58zm0 7h1.58v7.77h-1.58zM126.76 152h1.58v4.16h-1.58zm0 11.3h1.58v4.16h-1.58zm0 6.47h1.58v4.16h-1.58zm0 6.48h1.58v4.16h-1.58zm0 6.48h1.58v4.16h-1.58zm0 6.48h1.58v4.16h-1.58zm0 6.48h1.58v4.16h-1.58zm0 6.48h1.58v4.16h-1.58zm0 6.48h1.58v4.15h-1.58zm0 6.47h1.58v4.16h-1.58zm0 6.48h1.58v4.16h-1.58zm0 6.48h1.58v4.16h-1.58zm0 11.88h1.58v4.16h-1.58zm0 6.48h1.58v4.16h-1.58zm0 7h1.58v7.77h-1.58zM122.66 152h1.58v4.16h-1.58zm0 11.3h1.58v4.16h-1.58zm0 6.47h1.58v4.16h-1.58zm0 6.48h1.58v4.16h-1.58zm0 6.48h1.58v4.16h-1.58zm0 6.48h1.58v4.16h-1.58zm0 6.48h1.58v4.16h-1.58zm0 6.48h1.58v4.16h-1.58zm0 6.48h1.58v4.15h-1.58zm0 6.47h1.58v4.16h-1.58zm0 6.48h1.58v4.16h-1.58zm0 6.48h1.58v4.16h-1.58zm0 11.88h1.58v4.16h-1.58zm0 6.48h1.58v4.16h-1.58zm0 7h1.58v7.77h-1.58zM118.56 152h1.58v4.16h-1.58zm0 11.3h1.58v4.16h-1.58zm0 6.47h1.58v4.16h-1.58zm0 6.48h1.58v4.16h-1.58zm0 6.48h1.58v4.16h-1.58zm0 6.48h1.58v4.16h-1.58zm0 6.48h1.58v4.16h-1.58zm0 6.48h1.58v4.16h-1.58zm0 6.48h1.58v4.15h-1.58zm0 6.47h1.58v4.16h-1.58zm0 6.48h1.58v4.16h-1.58zm0 6.48h1.58v4.16h-1.58zm0 11.88h1.58v4.16h-1.58zm0 6.48h1.58v4.16h-1.58zm0 7h1.58v7.77h-1.58zM104.5 191h1.39v4.16h-1.39zm0 6.48h1.39v4.15h-1.39zm0 6.47h1.39v4.16h-1.39zm0 6h1.39v4.16h-1.39zm0 6.48h1.39v4.16h-1.39zm0 6.48h1.39v4.16h-1.39zm0 6.48h1.39v4.16h-1.39zm0 6.48h1.39v4.16h-1.39zm0 6.47h1.39v4.16h-1.39zm0 14.51h1.39V261h-1.39zM100.3 191h1.4v4.16h-1.4zm0 6.48h1.4v4.15h-1.4zm0 6.47h1.4v4.16h-1.4zm0 6h1.4v4.16h-1.4zm0 6.48h1.4v4.16h-1.4zm0 6.48h1.4v4.16h-1.4zm0 6.48h1.4v4.16h-1.4zm0 6.48h1.4v4.16h-1.4zm0 6.47h1.4v4.16h-1.4zm0 14.51h1.4V261h-1.4zM96.11 191h1.39v4.16h-1.39zm0 6.48h1.39v4.15h-1.39zm0 6.47h1.39v4.16h-1.39zm0 6h1.39v4.16h-1.39zm0 6.48h1.39v4.16h-1.39zm0 6.48h1.39v4.16h-1.39zm0 6.48h1.39v4.16h-1.39zm0 6.48h1.39v4.16h-1.39zm0 6.47h1.39v4.16h-1.39zm0 14.51h1.39V261h-1.39zm-18.35-78.6h1.58v2.16h-1.58zm0 6.48h1.58v2.16h-1.58zm0 6.48h1.58v2.16h-1.58zm0 6.48h1.58v2.16h-1.58zm0 6.48h1.58v2.16h-1.58zm0 6.48h1.58v2.15h-1.58zm0 6h1.58v2.16h-1.58zm0 6.48h1.58v2.16h-1.58zm0 6.48h1.58v2.16h-1.58zm0 6.52h1.58v2.16h-1.58zm0 6.48h1.58v2.16h-1.58zm0 6.52h1.58v2.16h-1.58zm0 6.48h1.58v2.16h-1.58zm0 6.48h1.58v2.16h-1.58zm-4.2-83.88h1.58v2.16h-1.58zm0 6.48h1.58v2.16h-1.58zm0 6.48h1.58v2.16h-1.58zm0 6.48h1.58v2.16h-1.58zm0 6.48h1.58v2.16h-1.58zm0 6.48h1.58v2.15h-1.58zm0 6h1.58v2.16h-1.58zm0 6.48h1.58v2.16h-1.58zm0 6.48h1.58v2.16h-1.58zm0 6.52h1.58v2.16h-1.58zm0 6.48h1.58v2.16h-1.58zm0 6.52h1.58v2.16h-1.58zm0 6.48h1.58v2.16h-1.58zm0 6.48h1.58v2.16h-1.58zm-4.1-83.88H71v2.16h-1.54zm0 6.48H71v2.16h-1.54zm0 6.48H71v2.16h-1.54zm0 6.48H71v2.16h-1.54zm0 6.48H71v2.16h-1.54zm0 6.48H71v2.15h-1.54zm0 6H71v2.16h-1.54zm0 6.48H71v2.16h-1.54zm0 6.48H71v2.16h-1.54zm0 6.52H71v2.16h-1.54zm0 6.48H71v2.16h-1.54zm0 6.52H71v2.16h-1.54zm0 6.48H71v2.16h-1.54zm0 6.48H71v2.16h-1.54zM54 144.25h1.4v3.69H54zm0 5.75h1.4v3.68H54zm0 5.74h1.4v3.68H54zm0 5.74h1.4v3.68H54zm0 5.73h1.4v3.69H54zm0 5.74h1.4v3.68H54zm0 5.74h1.4v3.68H54zm0 5.74h1.4v3.68H54zm0 5.73h1.4v3.68H54zm0 5.67h1.4v3.69H54zm0 5.74h1.4v3.68H54zm0 5.74h1.4V211H54zm0 5.69h1.4v3.69H54zm0 5.74h1.4v3.69H54zm0 5.74h1.4v3.68H54zm0 5.74h1.4v3.68H54zm0 5.78h1.4v3.69H54zm0 5.74h1.4v3.68H54zm0 5.74h1.4v3.68H54zm0 5.73h1.4v3.69H54zm-3.68-123.37h1.4v3.68h-1.4zm0 5.87h1.4v3.68h-1.4zm0 8.54h1.4v3.69h-1.4zm0 5.74h1.4v3.68h-1.4zm0 5.74h1.4v3.68h-1.4zm0 5.74h1.4v3.68h-1.4zm0 5.73h1.4v3.69h-1.4zm0 5.74h1.4v3.68h-1.4zm0 5.74h1.4v3.68h-1.4zm0 5.74h1.4v3.68h-1.4zm0 5.73h1.4v3.68h-1.4zm0 5.67h1.4v3.69h-1.4zm0 5.74h1.4v3.68h-1.4zm0 5.74h1.4v3.7h-1.4zm0 5.73h1.4v3.69h-1.4zm0 5.74h1.4v3.69h-1.4zm0 5.74h1.4v3.68h-1.4zm0 5.74h1.4v3.68h-1.4zm0 5.73h1.4v3.69h-1.4zm0 5.74h1.4v3.68h-1.4zm0 5.74h1.4v3.68h-1.4zm0 5.73h1.4v3.69h-1.4zm-3.63-123.35h1.4v3.68h-1.4zm0 5.87h1.4v3.68h-1.4zm0 8.54h1.4v3.69h-1.4zm0 5.74h1.4v3.68h-1.4zm0 5.74h1.4v3.68h-1.4zm0 5.74h1.4v3.68h-1.4zm0 5.73h1.4v3.69h-1.4zm0 5.74h1.4v3.68h-1.4zm0 5.74h1.4v3.68h-1.4zm0 5.74h1.4v3.68h-1.4zm0 5.73h1.4v3.68h-1.4zm0 5.67h1.4v3.69h-1.4zm0 5.74h1.4v3.68h-1.4zm0 5.74h1.4v3.7h-1.4zm0 5.73h1.4v3.69h-1.4zm0 5.74h1.4v3.69h-1.4zm0 5.74h1.4v3.68h-1.4zm0 5.74h1.4v3.68h-1.4zm0 5.73h1.4v3.69h-1.4zm0 5.74h1.4v3.68h-1.4zm0 5.74h1.4v3.68h-1.4zm0 5.73h1.4v3.69h-1.4zm-3.63-123.35h1.4v3.68h-1.4zm0 5.87h1.4v3.68h-1.4zm0 8.54h1.4v3.69h-1.4zm0 5.74h1.4v3.68h-1.4zm0 5.74h1.4v3.68h-1.4zm0 5.74h1.4v3.68h-1.4zm0 5.73h1.4v3.69h-1.4zm0 5.74h1.4v3.68h-1.4zm0 5.74h1.4v3.68h-1.4zm0 5.74h1.4v3.68h-1.4zm0 5.73h1.4v3.68h-1.4zm0 5.67h1.4v3.69h-1.4zm0 5.74h1.4v3.68h-1.4zm0 5.74h1.4v3.7h-1.4zm0 5.73h1.4v3.69h-1.4zm0 5.74h1.4v3.69h-1.4zm0 5.74h1.4v3.68h-1.4zm0 5.74h1.4v3.68h-1.4zm0 5.73h1.4v3.69h-1.4zm0 5.74h1.4v3.68h-1.4zm0 5.74h1.4v3.68h-1.4zm0 5.73h1.4v3.69h-1.4zm-3.63-108.94h1.4v3.69h-1.4zm0 5.74h1.4v3.68h-1.4zm0 5.74h1.4v3.68h-1.4zm0 5.74h1.4v3.68h-1.4zm0 5.73h1.4v3.69h-1.4zm0 5.74h1.4v3.68h-1.4zm0 5.74h1.4v3.68h-1.4zm0 5.74h1.4v3.68h-1.4zm0 5.73h1.4v3.68h-1.4zm0 5.67h1.4v3.69h-1.4zm0 5.74h1.4v3.68h-1.4zm0 5.74h1.4v3.7h-1.4zm0 5.73h1.4v3.69h-1.4zm0 5.74h1.4v3.69h-1.4zm0 5.74h1.4v3.68h-1.4zm0 5.74h1.4v3.68h-1.4zm0 5.73h1.4v3.69h-1.4zm0 5.74h1.4v3.68h-1.4zm0 5.74h1.4v3.68h-1.4zm0 5.73h1.4v3.69h-1.4zm-8.3-35.74h1.58v3.35h-1.58zm0 6.48h1.58v3.35h-1.58zm0 6.48h1.58v3.35h-1.58zm0 6.47h1.58v3.36h-1.58zm0 6.48h1.58v3.36h-1.58zM27 217.45h1.58v3.35H27zm0 6.48h1.58v3.35H27zm0 6.48h1.58v3.35H27zm0 6.47h1.58v3.36H27zm0 6.48h1.58v3.36H27zm-4.36-25.91h1.58v3.35h-1.55zm0 6.48h1.58v3.35h-1.55zm0 6.48h1.58v3.35h-1.55zm0 6.47h1.58v3.36h-1.55zm0 6.48h1.58v3.36h-1.55zm-4.1-25.91h1.58v3.35h-1.55zm0 6.48h1.58v3.35h-1.55zm0 6.48h1.58v3.35h-1.55zm0 6.47h1.58v3.36h-1.55zm0 6.48h1.58v3.36h-1.55zm-9.26-5.47h1.58v3.36H9.31zm0 6.48h1.58v3.36H9.31zm0 6h1.58v3.35H9.31zm-4.1-12.53h1.61v3.36H5.21zm0 6.48h1.61v3.36H5.21zm0 6h1.61v3.35H5.21z" fill="#f2f2f2" data-name="Layer 2"/></svg>